%TF.GenerationSoftware,KiCad,Pcbnew,7.0.11*%
%TF.CreationDate,2026-06-23T22:25:44+02:00*%
%TF.ProjectId,dual-blades-reverse,6475616c-2d62-46c6-9164-65732d726576,rev?*%
%TF.SameCoordinates,Original*%
%TF.FileFunction,Soldermask,Top*%
%TF.FilePolarity,Negative*%
%FSLAX46Y46*%
G04 Gerber Fmt 4.6, Leading zero omitted, Abs format (unit mm)*
G04 Created by KiCad (PCBNEW 7.0.11) date 2026-06-23 22:25:44*
%MOMM*%
%LPD*%
G01*
G04 APERTURE LIST*
G04 Aperture macros list*
%AMRoundRect*
0 Rectangle with rounded corners*
0 $1 Rounding radius*
0 $2 $3 $4 $5 $6 $7 $8 $9 X,Y pos of 4 corners*
0 Add a 4 corners polygon primitive as box body*
4,1,4,$2,$3,$4,$5,$6,$7,$8,$9,$2,$3,0*
0 Add four circle primitives for the rounded corners*
1,1,$1+$1,$2,$3*
1,1,$1+$1,$4,$5*
1,1,$1+$1,$6,$7*
1,1,$1+$1,$8,$9*
0 Add four rect primitives between the rounded corners*
20,1,$1+$1,$2,$3,$4,$5,0*
20,1,$1+$1,$4,$5,$6,$7,0*
20,1,$1+$1,$6,$7,$8,$9,0*
20,1,$1+$1,$8,$9,$2,$3,0*%
%AMHorizOval*
0 Thick line with rounded ends*
0 $1 width*
0 $2 $3 position (X,Y) of the first rounded end (center of the circle)*
0 $4 $5 position (X,Y) of the second rounded end (center of the circle)*
0 Add line between two ends*
20,1,$1,$2,$3,$4,$5,0*
0 Add two circle primitives to create the rounded ends*
1,1,$1,$2,$3*
1,1,$1,$4,$5*%
%AMRotRect*
0 Rectangle, with rotation*
0 The origin of the aperture is its center*
0 $1 length*
0 $2 width*
0 $3 Rotation angle, in degrees counterclockwise*
0 Add horizontal line*
21,1,$1,$2,0,0,$3*%
G04 Aperture macros list end*
%ADD10R,1.600000X1.600000*%
%ADD11O,1.600000X1.600000*%
%ADD12RotRect,1.600000X1.600000X105.000000*%
%ADD13HorizOval,1.600000X0.000000X0.000000X0.000000X0.000000X0*%
%ADD14C,1.750000*%
%ADD15C,3.987800*%
%ADD16RotRect,1.600000X1.600000X120.000000*%
%ADD17HorizOval,1.600000X0.000000X0.000000X0.000000X0.000000X0*%
%ADD18C,4.300000*%
%ADD19RoundRect,0.250000X0.625000X-0.350000X0.625000X0.350000X-0.625000X0.350000X-0.625000X-0.350000X0*%
%ADD20O,1.750000X1.200000*%
%ADD21R,1.700000X1.700000*%
%ADD22O,1.700000X1.700000*%
%ADD23C,0.850000*%
%ADD24C,2.100000*%
G04 APERTURE END LIST*
D10*
%TO.C,D19*%
X169899650Y-129362950D03*
D11*
X169899650Y-121742950D03*
%TD*%
D12*
%TO.C,D21*%
X130935750Y-129356978D03*
D13*
X128963549Y-121996623D03*
%TD*%
D14*
%TO.C,SW18*%
X108019548Y-108894200D03*
D15*
X113099548Y-108894200D03*
D14*
X118179548Y-108894200D03*
%TD*%
D16*
%TO.C,D23*%
X102209650Y-118425914D03*
D17*
X98399650Y-111826800D03*
%TD*%
D18*
%TO.C,H1*%
X198824600Y-87462900D03*
%TD*%
D14*
%TO.C,SW15*%
X165169648Y-106512850D03*
D15*
X170249648Y-106512850D03*
D14*
X175329648Y-106512850D03*
%TD*%
D10*
%TO.C,D16*%
X141799650Y-105550350D03*
D11*
X141799650Y-97930350D03*
%TD*%
D10*
%TO.C,D18*%
X103699550Y-112694200D03*
D11*
X103699550Y-105074200D03*
%TD*%
D14*
%TO.C,SW22*%
X97509591Y-138757905D03*
D15*
X101909000Y-136217905D03*
D14*
X106308409Y-133677905D03*
%TD*%
D10*
%TO.C,D15*%
X160849650Y-110312850D03*
D11*
X160849650Y-102692850D03*
%TD*%
D14*
%TO.C,SW6*%
X108019548Y-70794150D03*
D15*
X113099548Y-70794150D03*
D14*
X118179548Y-70794150D03*
%TD*%
D19*
%TO.C,J2*%
X88475316Y-105500000D03*
D20*
X88475316Y-103500000D03*
%TD*%
D10*
%TO.C,D10*%
X141799650Y-86500350D03*
D11*
X141799650Y-78880350D03*
%TD*%
D14*
%TO.C,SW5*%
X127070348Y-68412850D03*
D15*
X132150348Y-68412850D03*
D14*
X137230348Y-68412850D03*
%TD*%
D10*
%TO.C,D5*%
X122750350Y-72212850D03*
D11*
X122750350Y-64592850D03*
%TD*%
D21*
%TO.C,J1*%
X98149650Y-98176800D03*
D22*
X95609650Y-98176800D03*
X93069650Y-98176800D03*
X90529650Y-98176800D03*
X87989650Y-98176800D03*
%TD*%
D10*
%TO.C,D3*%
X160849650Y-69212850D03*
D11*
X160849650Y-61592850D03*
%TD*%
D14*
%TO.C,SW20*%
X136594648Y-125562950D03*
D15*
X141674648Y-125562950D03*
D14*
X146754648Y-125562950D03*
%TD*%
D10*
%TO.C,D6*%
X103699550Y-74594150D03*
D11*
X103699550Y-66974150D03*
%TD*%
D10*
%TO.C,D17*%
X122750350Y-110312850D03*
D11*
X122750350Y-102692850D03*
%TD*%
D10*
%TO.C,D7*%
X198949595Y-100787850D03*
D11*
X198949595Y-93167850D03*
%TD*%
D14*
%TO.C,SW13*%
X203269593Y-116037950D03*
D15*
X208349593Y-116037950D03*
D14*
X213429593Y-116037950D03*
%TD*%
D18*
%TO.C,H5*%
X107160000Y-122832300D03*
%TD*%
D10*
%TO.C,D2*%
X179899600Y-81737850D03*
D11*
X179899600Y-74117850D03*
%TD*%
D14*
%TO.C,SW3*%
X165169648Y-68412850D03*
D15*
X170249648Y-68412850D03*
D14*
X175329648Y-68412850D03*
%TD*%
%TO.C,SW19*%
X155644648Y-125562950D03*
D15*
X160724648Y-125562950D03*
D14*
X165804648Y-125562950D03*
%TD*%
D16*
%TO.C,D22*%
X112199650Y-135226800D03*
D17*
X108389650Y-128627686D03*
%TD*%
D10*
%TO.C,D1*%
X198949595Y-81737850D03*
D11*
X198949595Y-74117850D03*
%TD*%
D14*
%TO.C,SW21*%
X116183297Y-129586951D03*
D15*
X121090200Y-128272150D03*
D14*
X125997103Y-126957349D03*
%TD*%
D10*
%TO.C,D11*%
X122750350Y-93262850D03*
D11*
X122750350Y-85642850D03*
%TD*%
D10*
%TO.C,D8*%
X179899600Y-100787850D03*
D11*
X179899600Y-93167850D03*
%TD*%
D10*
%TO.C,D12*%
X103699550Y-93644150D03*
D11*
X103699550Y-86024150D03*
%TD*%
D18*
%TO.C,H2*%
X122624700Y-79128500D03*
%TD*%
D14*
%TO.C,SW9*%
X165169648Y-87462850D03*
D15*
X170249648Y-87462850D03*
D14*
X175329648Y-87462850D03*
%TD*%
D18*
%TO.C,H4*%
X175757900Y-122438200D03*
%TD*%
D14*
%TO.C,SW14*%
X184219598Y-116037950D03*
D15*
X189299598Y-116037950D03*
D14*
X194379598Y-116037950D03*
%TD*%
%TO.C,SW16*%
X146119648Y-101750350D03*
D15*
X151199648Y-101750350D03*
D14*
X156279648Y-101750350D03*
%TD*%
D10*
%TO.C,D20*%
X150774650Y-129362950D03*
D11*
X150774650Y-121742950D03*
%TD*%
D14*
%TO.C,SW12*%
X108019548Y-89844150D03*
D15*
X113099548Y-89844150D03*
D14*
X118179548Y-89844150D03*
%TD*%
%TO.C,SW2*%
X184219598Y-77937850D03*
D15*
X189299598Y-77937850D03*
D14*
X194379598Y-77937850D03*
%TD*%
%TO.C,SW1*%
X203269593Y-77937850D03*
D15*
X208349593Y-77937850D03*
D14*
X213429593Y-77937850D03*
%TD*%
%TO.C,SW7*%
X203269593Y-96987850D03*
D15*
X208349593Y-96987850D03*
D14*
X213429593Y-96987850D03*
%TD*%
%TO.C,SW11*%
X127070348Y-87462850D03*
D15*
X132150348Y-87462850D03*
D14*
X137230348Y-87462850D03*
%TD*%
D18*
%TO.C,H3*%
X198824600Y-106512900D03*
%TD*%
D14*
%TO.C,SW8*%
X184219598Y-96987850D03*
D15*
X189299598Y-96987850D03*
D14*
X194379598Y-96987850D03*
%TD*%
%TO.C,SW4*%
X146119648Y-63650350D03*
D15*
X151199648Y-63650350D03*
D14*
X156279648Y-63650350D03*
%TD*%
%TO.C,SW10*%
X146119648Y-82700350D03*
D15*
X151199648Y-82700350D03*
D14*
X156279648Y-82700350D03*
%TD*%
D10*
%TO.C,D13*%
X198949595Y-119837950D03*
D11*
X198949595Y-112217950D03*
%TD*%
D10*
%TO.C,D14*%
X179899600Y-117837950D03*
D11*
X179899600Y-110217950D03*
%TD*%
D10*
%TO.C,D9*%
X160849650Y-91262850D03*
D11*
X160849650Y-83642850D03*
%TD*%
D14*
%TO.C,SW17*%
X127070348Y-106512850D03*
D15*
X132150348Y-106512850D03*
D14*
X137230348Y-106512850D03*
%TD*%
D10*
%TO.C,D4*%
X141799650Y-72212850D03*
D11*
X141799650Y-64592850D03*
%TD*%
D23*
%TO.C,SW25*%
X81425316Y-97676800D03*
X81425316Y-100676800D03*
%TD*%
D24*
%TO.C,SW24*%
X84999650Y-111676800D03*
X84999650Y-104676800D03*
%TD*%
M02*
