%TF.GenerationSoftware,KiCad,Pcbnew,7.0.11*%
%TF.CreationDate,2026-06-23T22:25:44+02:00*%
%TF.ProjectId,dual-blades-reverse,6475616c-2d62-46c6-9164-65732d726576,rev?*%
%TF.SameCoordinates,Original*%
%TF.FileFunction,Legend,Top*%
%TF.FilePolarity,Positive*%
%FSLAX46Y46*%
G04 Gerber Fmt 4.6, Leading zero omitted, Abs format (unit mm)*
G04 Created by KiCad (PCBNEW 7.0.11) date 2026-06-23 22:25:44*
%MOMM*%
%LPD*%
G01*
G04 APERTURE LIST*
%ADD10C,0.150000*%
%ADD11C,0.120000*%
G04 APERTURE END LIST*
D10*
X91807745Y-62996619D02*
X91807745Y-63806142D01*
X91807745Y-63806142D02*
X91855364Y-63901380D01*
X91855364Y-63901380D02*
X91902983Y-63949000D01*
X91902983Y-63949000D02*
X91998221Y-63996619D01*
X91998221Y-63996619D02*
X92188697Y-63996619D01*
X92188697Y-63996619D02*
X92283935Y-63949000D01*
X92283935Y-63949000D02*
X92331554Y-63901380D01*
X92331554Y-63901380D02*
X92379173Y-63806142D01*
X92379173Y-63806142D02*
X92379173Y-62996619D01*
X92807745Y-63949000D02*
X92950602Y-63996619D01*
X92950602Y-63996619D02*
X93188697Y-63996619D01*
X93188697Y-63996619D02*
X93283935Y-63949000D01*
X93283935Y-63949000D02*
X93331554Y-63901380D01*
X93331554Y-63901380D02*
X93379173Y-63806142D01*
X93379173Y-63806142D02*
X93379173Y-63710904D01*
X93379173Y-63710904D02*
X93331554Y-63615666D01*
X93331554Y-63615666D02*
X93283935Y-63568047D01*
X93283935Y-63568047D02*
X93188697Y-63520428D01*
X93188697Y-63520428D02*
X92998221Y-63472809D01*
X92998221Y-63472809D02*
X92902983Y-63425190D01*
X92902983Y-63425190D02*
X92855364Y-63377571D01*
X92855364Y-63377571D02*
X92807745Y-63282333D01*
X92807745Y-63282333D02*
X92807745Y-63187095D01*
X92807745Y-63187095D02*
X92855364Y-63091857D01*
X92855364Y-63091857D02*
X92902983Y-63044238D01*
X92902983Y-63044238D02*
X92998221Y-62996619D01*
X92998221Y-62996619D02*
X93236316Y-62996619D01*
X93236316Y-62996619D02*
X93379173Y-63044238D01*
X94141078Y-63472809D02*
X94283935Y-63520428D01*
X94283935Y-63520428D02*
X94331554Y-63568047D01*
X94331554Y-63568047D02*
X94379173Y-63663285D01*
X94379173Y-63663285D02*
X94379173Y-63806142D01*
X94379173Y-63806142D02*
X94331554Y-63901380D01*
X94331554Y-63901380D02*
X94283935Y-63949000D01*
X94283935Y-63949000D02*
X94188697Y-63996619D01*
X94188697Y-63996619D02*
X93807745Y-63996619D01*
X93807745Y-63996619D02*
X93807745Y-62996619D01*
X93807745Y-62996619D02*
X94141078Y-62996619D01*
X94141078Y-62996619D02*
X94236316Y-63044238D01*
X94236316Y-63044238D02*
X94283935Y-63091857D01*
X94283935Y-63091857D02*
X94331554Y-63187095D01*
X94331554Y-63187095D02*
X94331554Y-63282333D01*
X94331554Y-63282333D02*
X94283935Y-63377571D01*
X94283935Y-63377571D02*
X94236316Y-63425190D01*
X94236316Y-63425190D02*
X94141078Y-63472809D01*
X94141078Y-63472809D02*
X93807745Y-63472809D01*
X87640364Y-66914119D02*
X87068936Y-66914119D01*
X87354650Y-66914119D02*
X87354650Y-65914119D01*
X87354650Y-65914119D02*
X87259412Y-66056976D01*
X87259412Y-66056976D02*
X87164174Y-66152214D01*
X87164174Y-66152214D02*
X87068936Y-66199833D01*
X90450602Y-64729952D02*
X90831554Y-64729952D01*
X90593459Y-64396619D02*
X90593459Y-65253761D01*
X90593459Y-65253761D02*
X90641078Y-65349000D01*
X90641078Y-65349000D02*
X90736316Y-65396619D01*
X90736316Y-65396619D02*
X90831554Y-65396619D01*
X91307745Y-65396619D02*
X91212507Y-65349000D01*
X91212507Y-65349000D02*
X91164888Y-65301380D01*
X91164888Y-65301380D02*
X91117269Y-65206142D01*
X91117269Y-65206142D02*
X91117269Y-64920428D01*
X91117269Y-64920428D02*
X91164888Y-64825190D01*
X91164888Y-64825190D02*
X91212507Y-64777571D01*
X91212507Y-64777571D02*
X91307745Y-64729952D01*
X91307745Y-64729952D02*
X91450602Y-64729952D01*
X91450602Y-64729952D02*
X91545840Y-64777571D01*
X91545840Y-64777571D02*
X91593459Y-64825190D01*
X91593459Y-64825190D02*
X91641078Y-64920428D01*
X91641078Y-64920428D02*
X91641078Y-65206142D01*
X91641078Y-65206142D02*
X91593459Y-65301380D01*
X91593459Y-65301380D02*
X91545840Y-65349000D01*
X91545840Y-65349000D02*
X91450602Y-65396619D01*
X91450602Y-65396619D02*
X91307745Y-65396619D01*
X92069650Y-64729952D02*
X92069650Y-65729952D01*
X92069650Y-64777571D02*
X92164888Y-64729952D01*
X92164888Y-64729952D02*
X92355364Y-64729952D01*
X92355364Y-64729952D02*
X92450602Y-64777571D01*
X92450602Y-64777571D02*
X92498221Y-64825190D01*
X92498221Y-64825190D02*
X92545840Y-64920428D01*
X92545840Y-64920428D02*
X92545840Y-65206142D01*
X92545840Y-65206142D02*
X92498221Y-65301380D01*
X92498221Y-65301380D02*
X92450602Y-65349000D01*
X92450602Y-65349000D02*
X92355364Y-65396619D01*
X92355364Y-65396619D02*
X92164888Y-65396619D01*
X92164888Y-65396619D02*
X92069650Y-65349000D01*
X92926793Y-65349000D02*
X93022031Y-65396619D01*
X93022031Y-65396619D02*
X93212507Y-65396619D01*
X93212507Y-65396619D02*
X93307745Y-65349000D01*
X93307745Y-65349000D02*
X93355364Y-65253761D01*
X93355364Y-65253761D02*
X93355364Y-65206142D01*
X93355364Y-65206142D02*
X93307745Y-65110904D01*
X93307745Y-65110904D02*
X93212507Y-65063285D01*
X93212507Y-65063285D02*
X93069650Y-65063285D01*
X93069650Y-65063285D02*
X92974412Y-65015666D01*
X92974412Y-65015666D02*
X92926793Y-64920428D01*
X92926793Y-64920428D02*
X92926793Y-64872809D01*
X92926793Y-64872809D02*
X92974412Y-64777571D01*
X92974412Y-64777571D02*
X93069650Y-64729952D01*
X93069650Y-64729952D02*
X93212507Y-64729952D01*
X93212507Y-64729952D02*
X93307745Y-64777571D01*
X93783936Y-65396619D02*
X93783936Y-64729952D01*
X93783936Y-64396619D02*
X93736317Y-64444238D01*
X93736317Y-64444238D02*
X93783936Y-64491857D01*
X93783936Y-64491857D02*
X93831555Y-64444238D01*
X93831555Y-64444238D02*
X93783936Y-64396619D01*
X93783936Y-64396619D02*
X93783936Y-64491857D01*
X94688697Y-65396619D02*
X94688697Y-64396619D01*
X94688697Y-65349000D02*
X94593459Y-65396619D01*
X94593459Y-65396619D02*
X94402983Y-65396619D01*
X94402983Y-65396619D02*
X94307745Y-65349000D01*
X94307745Y-65349000D02*
X94260126Y-65301380D01*
X94260126Y-65301380D02*
X94212507Y-65206142D01*
X94212507Y-65206142D02*
X94212507Y-64920428D01*
X94212507Y-64920428D02*
X94260126Y-64825190D01*
X94260126Y-64825190D02*
X94307745Y-64777571D01*
X94307745Y-64777571D02*
X94402983Y-64729952D01*
X94402983Y-64729952D02*
X94593459Y-64729952D01*
X94593459Y-64729952D02*
X94688697Y-64777571D01*
X95545840Y-65349000D02*
X95450602Y-65396619D01*
X95450602Y-65396619D02*
X95260126Y-65396619D01*
X95260126Y-65396619D02*
X95164888Y-65349000D01*
X95164888Y-65349000D02*
X95117269Y-65253761D01*
X95117269Y-65253761D02*
X95117269Y-64872809D01*
X95117269Y-64872809D02*
X95164888Y-64777571D01*
X95164888Y-64777571D02*
X95260126Y-64729952D01*
X95260126Y-64729952D02*
X95450602Y-64729952D01*
X95450602Y-64729952D02*
X95545840Y-64777571D01*
X95545840Y-64777571D02*
X95593459Y-64872809D01*
X95593459Y-64872809D02*
X95593459Y-64968047D01*
X95593459Y-64968047D02*
X95117269Y-65063285D01*
D11*
%TO.C,D19*%
X169899650Y-128322950D02*
X169899650Y-127672950D01*
X168779650Y-127672950D02*
X171019650Y-127672950D01*
X171019650Y-127672950D02*
X171019650Y-123432950D01*
X168779650Y-127072950D02*
X171019650Y-127072950D01*
X168779650Y-126952950D02*
X171019650Y-126952950D01*
X168779650Y-126832950D02*
X171019650Y-126832950D01*
X168779650Y-123432950D02*
X168779650Y-127672950D01*
X171019650Y-123432950D02*
X168779650Y-123432950D01*
X169899650Y-122782950D02*
X169899650Y-123432950D01*
%TO.C,D21*%
X130666578Y-128352415D02*
X130498346Y-127724563D01*
X129416509Y-128014441D02*
X131580183Y-127434686D01*
X131580183Y-127434686D02*
X130482790Y-123339161D01*
X129261217Y-127434885D02*
X131424891Y-126855131D01*
X129230159Y-127318974D02*
X131393833Y-126739219D01*
X129199101Y-127203063D02*
X131362775Y-126623308D01*
X128319116Y-123918915D02*
X129416509Y-128014441D01*
X130482790Y-123339161D02*
X128319116Y-123918915D01*
X129232721Y-123001186D02*
X129400953Y-123629038D01*
%TO.C,D23*%
X101689650Y-117525248D02*
X101364650Y-116962331D01*
X100394702Y-117522331D02*
X102334598Y-116402331D01*
X102334598Y-116402331D02*
X100214598Y-112730383D01*
X100094702Y-117002716D02*
X102034598Y-115882716D01*
X100034702Y-116898793D02*
X101974598Y-115778793D01*
X99974702Y-116794870D02*
X101914598Y-115674870D01*
X98274702Y-113850383D02*
X100394702Y-117522331D01*
X100214598Y-112730383D02*
X98274702Y-113850383D01*
X98919650Y-112727467D02*
X99244650Y-113290383D01*
%TO.C,D16*%
X141799650Y-104510350D02*
X141799650Y-103860350D01*
X140679650Y-103860350D02*
X142919650Y-103860350D01*
X142919650Y-103860350D02*
X142919650Y-99620350D01*
X140679650Y-103260350D02*
X142919650Y-103260350D01*
X140679650Y-103140350D02*
X142919650Y-103140350D01*
X140679650Y-103020350D02*
X142919650Y-103020350D01*
X140679650Y-99620350D02*
X140679650Y-103860350D01*
X142919650Y-99620350D02*
X140679650Y-99620350D01*
X141799650Y-98970350D02*
X141799650Y-99620350D01*
%TO.C,D18*%
X103699550Y-111654200D02*
X103699550Y-111004200D01*
X102579550Y-111004200D02*
X104819550Y-111004200D01*
X104819550Y-111004200D02*
X104819550Y-106764200D01*
X102579550Y-110404200D02*
X104819550Y-110404200D01*
X102579550Y-110284200D02*
X104819550Y-110284200D01*
X102579550Y-110164200D02*
X104819550Y-110164200D01*
X102579550Y-106764200D02*
X102579550Y-111004200D01*
X104819550Y-106764200D02*
X102579550Y-106764200D01*
X103699550Y-106114200D02*
X103699550Y-106764200D01*
%TO.C,D15*%
X160849650Y-109272850D02*
X160849650Y-108622850D01*
X159729650Y-108622850D02*
X161969650Y-108622850D01*
X161969650Y-108622850D02*
X161969650Y-104382850D01*
X159729650Y-108022850D02*
X161969650Y-108022850D01*
X159729650Y-107902850D02*
X161969650Y-107902850D01*
X159729650Y-107782850D02*
X161969650Y-107782850D01*
X159729650Y-104382850D02*
X159729650Y-108622850D01*
X161969650Y-104382850D02*
X159729650Y-104382850D01*
X160849650Y-103732850D02*
X160849650Y-104382850D01*
%TO.C,J2*%
X87015316Y-107560000D02*
X94835316Y-107560000D01*
X88615316Y-107560000D02*
X88615316Y-106640000D01*
X94835316Y-107560000D02*
X94835316Y-101440000D01*
X90975316Y-106800000D02*
X92575316Y-106800000D01*
X92575316Y-106800000D02*
X92575316Y-105800000D01*
X87015316Y-106640000D02*
X87015316Y-107560000D01*
X88615316Y-106640000D02*
X87015316Y-106640000D01*
X88615316Y-106360000D02*
X88615316Y-106640000D01*
X88615316Y-106360000D02*
X87400316Y-106360000D01*
X92575316Y-106300000D02*
X94835316Y-106300000D01*
X90975316Y-105800000D02*
X90975316Y-106800000D01*
X92575316Y-105800000D02*
X90975316Y-105800000D01*
X92575316Y-105800000D02*
X94835316Y-105800000D01*
X90475316Y-105000000D02*
X90475316Y-104000000D01*
X94835316Y-105000000D02*
X90475316Y-105000000D01*
X90475316Y-104000000D02*
X94835316Y-104000000D01*
X90975316Y-103200000D02*
X90975316Y-102200000D01*
X92575316Y-103200000D02*
X90975316Y-103200000D01*
X87015316Y-102360000D02*
X88615316Y-102360000D01*
X88615316Y-102360000D02*
X88615316Y-102640000D01*
X90975316Y-102200000D02*
X92575316Y-102200000D01*
X92575316Y-102200000D02*
X92575316Y-103200000D01*
X87015316Y-101440000D02*
X87015316Y-102360000D01*
X88615316Y-101440000D02*
X88615316Y-102360000D01*
X94835316Y-101440000D02*
X87015316Y-101440000D01*
%TO.C,D10*%
X141799650Y-85460350D02*
X141799650Y-84810350D01*
X140679650Y-84810350D02*
X142919650Y-84810350D01*
X142919650Y-84810350D02*
X142919650Y-80570350D01*
X140679650Y-84210350D02*
X142919650Y-84210350D01*
X140679650Y-84090350D02*
X142919650Y-84090350D01*
X140679650Y-83970350D02*
X142919650Y-83970350D01*
X140679650Y-80570350D02*
X140679650Y-84810350D01*
X142919650Y-80570350D02*
X140679650Y-80570350D01*
X141799650Y-79920350D02*
X141799650Y-80570350D01*
%TO.C,D5*%
X122750350Y-71172850D02*
X122750350Y-70522850D01*
X121630350Y-70522850D02*
X123870350Y-70522850D01*
X123870350Y-70522850D02*
X123870350Y-66282850D01*
X121630350Y-69922850D02*
X123870350Y-69922850D01*
X121630350Y-69802850D02*
X123870350Y-69802850D01*
X121630350Y-69682850D02*
X123870350Y-69682850D01*
X121630350Y-66282850D02*
X121630350Y-70522850D01*
X123870350Y-66282850D02*
X121630350Y-66282850D01*
X122750350Y-65632850D02*
X122750350Y-66282850D01*
%TO.C,SW23*%
X100543550Y-122053455D02*
X98465089Y-123253455D01*
X98493550Y-118502751D02*
X100543550Y-122053455D01*
X96493550Y-115038649D02*
X94443550Y-111487945D01*
X94443550Y-111487945D02*
X84224450Y-117387945D01*
X96559833Y-124353455D02*
X94308167Y-125653455D01*
X89893808Y-114807560D02*
X89374192Y-115107560D01*
X89484000Y-114697753D02*
X89893808Y-114807560D01*
X89374192Y-115107560D02*
X89484000Y-114697753D01*
X92402911Y-126753455D02*
X90324450Y-127953455D01*
X90324450Y-127953455D02*
X88274450Y-124402751D01*
X86274450Y-120938649D02*
X84224450Y-117387945D01*
X94384000Y-119720700D02*
G75*
G03*
X90384000Y-119720700I-2000000J0D01*
G01*
X90384000Y-119720700D02*
G75*
G03*
X94384000Y-119720700I2000000J0D01*
G01*
%TO.C,J1*%
X99479650Y-96846800D02*
X99479650Y-98176800D01*
X98149650Y-96846800D02*
X99479650Y-96846800D01*
X96879650Y-96846800D02*
X86659650Y-96846800D01*
X96879650Y-96846800D02*
X96879650Y-99506800D01*
X86659650Y-96846800D02*
X86659650Y-99506800D01*
X96879650Y-99506800D02*
X86659650Y-99506800D01*
%TO.C,D3*%
X160849650Y-68172850D02*
X160849650Y-67522850D01*
X159729650Y-67522850D02*
X161969650Y-67522850D01*
X161969650Y-67522850D02*
X161969650Y-63282850D01*
X159729650Y-66922850D02*
X161969650Y-66922850D01*
X159729650Y-66802850D02*
X161969650Y-66802850D01*
X159729650Y-66682850D02*
X161969650Y-66682850D01*
X159729650Y-63282850D02*
X159729650Y-67522850D01*
X161969650Y-63282850D02*
X159729650Y-63282850D01*
X160849650Y-62632850D02*
X160849650Y-63282850D01*
%TO.C,D6*%
X103699550Y-73554150D02*
X103699550Y-72904150D01*
X102579550Y-72904150D02*
X104819550Y-72904150D01*
X104819550Y-72904150D02*
X104819550Y-68664150D01*
X102579550Y-72304150D02*
X104819550Y-72304150D01*
X102579550Y-72184150D02*
X104819550Y-72184150D01*
X102579550Y-72064150D02*
X104819550Y-72064150D01*
X102579550Y-68664150D02*
X102579550Y-72904150D01*
X104819550Y-68664150D02*
X102579550Y-68664150D01*
X103699550Y-68014150D02*
X103699550Y-68664150D01*
%TO.C,D17*%
X122750350Y-109272850D02*
X122750350Y-108622850D01*
X121630350Y-108622850D02*
X123870350Y-108622850D01*
X123870350Y-108622850D02*
X123870350Y-104382850D01*
X121630350Y-108022850D02*
X123870350Y-108022850D01*
X121630350Y-107902850D02*
X123870350Y-107902850D01*
X121630350Y-107782850D02*
X123870350Y-107782850D01*
X121630350Y-104382850D02*
X121630350Y-108622850D01*
X123870350Y-104382850D02*
X121630350Y-104382850D01*
X122750350Y-103732850D02*
X122750350Y-104382850D01*
%TO.C,D7*%
X198949595Y-99747850D02*
X198949595Y-99097850D01*
X197829595Y-99097850D02*
X200069595Y-99097850D01*
X200069595Y-99097850D02*
X200069595Y-94857850D01*
X197829595Y-98497850D02*
X200069595Y-98497850D01*
X197829595Y-98377850D02*
X200069595Y-98377850D01*
X197829595Y-98257850D02*
X200069595Y-98257850D01*
X197829595Y-94857850D02*
X197829595Y-99097850D01*
X200069595Y-94857850D02*
X197829595Y-94857850D01*
X198949595Y-94207850D02*
X198949595Y-94857850D01*
%TO.C,D2*%
X179899600Y-80697850D02*
X179899600Y-80047850D01*
X178779600Y-80047850D02*
X181019600Y-80047850D01*
X181019600Y-80047850D02*
X181019600Y-75807850D01*
X178779600Y-79447850D02*
X181019600Y-79447850D01*
X178779600Y-79327850D02*
X181019600Y-79327850D01*
X178779600Y-79207850D02*
X181019600Y-79207850D01*
X178779600Y-75807850D02*
X178779600Y-80047850D01*
X181019600Y-75807850D02*
X178779600Y-75807850D01*
X179899600Y-75157850D02*
X179899600Y-75807850D01*
%TO.C,D22*%
X111679650Y-134326134D02*
X111354650Y-133763217D01*
X110384702Y-134323217D02*
X112324598Y-133203217D01*
X112324598Y-133203217D02*
X110204598Y-129531269D01*
X110084702Y-133803602D02*
X112024598Y-132683602D01*
X110024702Y-133699679D02*
X111964598Y-132579679D01*
X109964702Y-133595756D02*
X111904598Y-132475756D01*
X108264702Y-130651269D02*
X110384702Y-134323217D01*
X110204598Y-129531269D02*
X108264702Y-130651269D01*
X108909650Y-129528353D02*
X109234650Y-130091269D01*
%TO.C,D1*%
X198949595Y-80697850D02*
X198949595Y-80047850D01*
X197829595Y-80047850D02*
X200069595Y-80047850D01*
X200069595Y-80047850D02*
X200069595Y-75807850D01*
X197829595Y-79447850D02*
X200069595Y-79447850D01*
X197829595Y-79327850D02*
X200069595Y-79327850D01*
X197829595Y-79207850D02*
X200069595Y-79207850D01*
X197829595Y-75807850D02*
X197829595Y-80047850D01*
X200069595Y-75807850D02*
X197829595Y-75807850D01*
X198949595Y-75157850D02*
X198949595Y-75807850D01*
%TO.C,D11*%
X122750350Y-92222850D02*
X122750350Y-91572850D01*
X121630350Y-91572850D02*
X123870350Y-91572850D01*
X123870350Y-91572850D02*
X123870350Y-87332850D01*
X121630350Y-90972850D02*
X123870350Y-90972850D01*
X121630350Y-90852850D02*
X123870350Y-90852850D01*
X121630350Y-90732850D02*
X123870350Y-90732850D01*
X121630350Y-87332850D02*
X121630350Y-91572850D01*
X123870350Y-87332850D02*
X121630350Y-87332850D01*
X122750350Y-86682850D02*
X122750350Y-87332850D01*
%TO.C,D8*%
X179899600Y-99747850D02*
X179899600Y-99097850D01*
X178779600Y-99097850D02*
X181019600Y-99097850D01*
X181019600Y-99097850D02*
X181019600Y-94857850D01*
X178779600Y-98497850D02*
X181019600Y-98497850D01*
X178779600Y-98377850D02*
X181019600Y-98377850D01*
X178779600Y-98257850D02*
X181019600Y-98257850D01*
X178779600Y-94857850D02*
X178779600Y-99097850D01*
X181019600Y-94857850D02*
X178779600Y-94857850D01*
X179899600Y-94207850D02*
X179899600Y-94857850D01*
%TO.C,D12*%
X103699550Y-92604150D02*
X103699550Y-91954150D01*
X102579550Y-91954150D02*
X104819550Y-91954150D01*
X104819550Y-91954150D02*
X104819550Y-87714150D01*
X102579550Y-91354150D02*
X104819550Y-91354150D01*
X102579550Y-91234150D02*
X104819550Y-91234150D01*
X102579550Y-91114150D02*
X104819550Y-91114150D01*
X102579550Y-87714150D02*
X102579550Y-91954150D01*
X104819550Y-87714150D02*
X102579550Y-87714150D01*
X103699550Y-87064150D02*
X103699550Y-87714150D01*
%TO.C,D20*%
X150774650Y-128322950D02*
X150774650Y-127672950D01*
X149654650Y-127672950D02*
X151894650Y-127672950D01*
X151894650Y-127672950D02*
X151894650Y-123432950D01*
X149654650Y-127072950D02*
X151894650Y-127072950D01*
X149654650Y-126952950D02*
X151894650Y-126952950D01*
X149654650Y-126832950D02*
X151894650Y-126832950D01*
X149654650Y-123432950D02*
X149654650Y-127672950D01*
X151894650Y-123432950D02*
X149654650Y-123432950D01*
X150774650Y-122782950D02*
X150774650Y-123432950D01*
D10*
%TO.C,U1*%
X89519650Y-66126800D02*
X89519650Y-62546800D01*
X96619650Y-66126800D02*
X89519650Y-66126800D01*
X96619650Y-66126800D02*
X96619650Y-62546800D01*
X84179650Y-62546800D02*
X101959650Y-62546800D01*
X101959650Y-62546800D02*
X101959650Y-95566800D01*
X101959650Y-95566800D02*
X84179650Y-95566800D01*
X84179650Y-95566800D02*
X84179650Y-62546800D01*
D11*
%TO.C,D13*%
X198949595Y-118797950D02*
X198949595Y-118147950D01*
X197829595Y-118147950D02*
X200069595Y-118147950D01*
X200069595Y-118147950D02*
X200069595Y-113907950D01*
X197829595Y-117547950D02*
X200069595Y-117547950D01*
X197829595Y-117427950D02*
X200069595Y-117427950D01*
X197829595Y-117307950D02*
X200069595Y-117307950D01*
X197829595Y-113907950D02*
X197829595Y-118147950D01*
X200069595Y-113907950D02*
X197829595Y-113907950D01*
X198949595Y-113257950D02*
X198949595Y-113907950D01*
%TO.C,D14*%
X179899600Y-116797950D02*
X179899600Y-116147950D01*
X178779600Y-116147950D02*
X181019600Y-116147950D01*
X181019600Y-116147950D02*
X181019600Y-111907950D01*
X178779600Y-115547950D02*
X181019600Y-115547950D01*
X178779600Y-115427950D02*
X181019600Y-115427950D01*
X178779600Y-115307950D02*
X181019600Y-115307950D01*
X178779600Y-111907950D02*
X178779600Y-116147950D01*
X181019600Y-111907950D02*
X178779600Y-111907950D01*
X179899600Y-111257950D02*
X179899600Y-111907950D01*
%TO.C,D9*%
X160849650Y-90222850D02*
X160849650Y-89572850D01*
X159729650Y-89572850D02*
X161969650Y-89572850D01*
X161969650Y-89572850D02*
X161969650Y-85332850D01*
X159729650Y-88972850D02*
X161969650Y-88972850D01*
X159729650Y-88852850D02*
X161969650Y-88852850D01*
X159729650Y-88732850D02*
X161969650Y-88732850D01*
X159729650Y-85332850D02*
X159729650Y-89572850D01*
X161969650Y-85332850D02*
X159729650Y-85332850D01*
X160849650Y-84682850D02*
X160849650Y-85332850D01*
%TO.C,D4*%
X141799650Y-71172850D02*
X141799650Y-70522850D01*
X140679650Y-70522850D02*
X142919650Y-70522850D01*
X142919650Y-70522850D02*
X142919650Y-66282850D01*
X140679650Y-69922850D02*
X142919650Y-69922850D01*
X140679650Y-69802850D02*
X142919650Y-69802850D01*
X140679650Y-69682850D02*
X142919650Y-69682850D01*
X140679650Y-66282850D02*
X140679650Y-70522850D01*
X142919650Y-66282850D02*
X140679650Y-66282850D01*
X141799650Y-65632850D02*
X141799650Y-66282850D01*
%TO.C,SW24*%
X83679650Y-112076800D02*
X79999650Y-112076800D01*
X79999650Y-112076800D02*
X79999650Y-104276800D01*
X84299650Y-110426800D02*
X84299650Y-105926800D01*
X83679650Y-104276800D02*
X79999650Y-104276800D01*
%TD*%
M02*
