%TF.GenerationSoftware,KiCad,Pcbnew,7.0.11*%
%TF.CreationDate,2026-06-23T22:25:44+02:00*%
%TF.ProjectId,dual-blades-reverse,6475616c-2d62-46c6-9164-65732d726576,rev?*%
%TF.SameCoordinates,Original*%
%TF.FileFunction,Copper,L2,Bot*%
%TF.FilePolarity,Positive*%
%FSLAX46Y46*%
G04 Gerber Fmt 4.6, Leading zero omitted, Abs format (unit mm)*
G04 Created by KiCad (PCBNEW 7.0.11) date 2026-06-23 22:25:44*
%MOMM*%
%LPD*%
G01*
G04 APERTURE LIST*
G04 Aperture macros list*
%AMRoundRect*
0 Rectangle with rounded corners*
0 $1 Rounding radius*
0 $2 $3 $4 $5 $6 $7 $8 $9 X,Y pos of 4 corners*
0 Add a 4 corners polygon primitive as box body*
4,1,4,$2,$3,$4,$5,$6,$7,$8,$9,$2,$3,0*
0 Add four circle primitives for the rounded corners*
1,1,$1+$1,$2,$3*
1,1,$1+$1,$4,$5*
1,1,$1+$1,$6,$7*
1,1,$1+$1,$8,$9*
0 Add four rect primitives between the rounded corners*
20,1,$1+$1,$2,$3,$4,$5,0*
20,1,$1+$1,$4,$5,$6,$7,0*
20,1,$1+$1,$6,$7,$8,$9,0*
20,1,$1+$1,$8,$9,$2,$3,0*%
%AMHorizOval*
0 Thick line with rounded ends*
0 $1 width*
0 $2 $3 position (X,Y) of the first rounded end (center of the circle)*
0 $4 $5 position (X,Y) of the second rounded end (center of the circle)*
0 Add line between two ends*
20,1,$1,$2,$3,$4,$5,0*
0 Add two circle primitives to create the rounded ends*
1,1,$1,$2,$3*
1,1,$1,$4,$5*%
%AMRotRect*
0 Rectangle, with rotation*
0 The origin of the aperture is its center*
0 $1 length*
0 $2 width*
0 $3 Rotation angle, in degrees counterclockwise*
0 Add horizontal line*
21,1,$1,$2,0,0,$3*%
G04 Aperture macros list end*
%TA.AperFunction,ComponentPad*%
%ADD10R,1.600000X1.600000*%
%TD*%
%TA.AperFunction,ComponentPad*%
%ADD11O,1.600000X1.600000*%
%TD*%
%TA.AperFunction,ComponentPad*%
%ADD12RotRect,1.600000X1.600000X105.000000*%
%TD*%
%TA.AperFunction,ComponentPad*%
%ADD13HorizOval,1.600000X0.000000X0.000000X0.000000X0.000000X0*%
%TD*%
%TA.AperFunction,ComponentPad*%
%ADD14C,2.300000*%
%TD*%
%TA.AperFunction,ComponentPad*%
%ADD15HorizOval,2.300000X-0.655144X-0.730170X0.655144X0.730170X0*%
%TD*%
%TA.AperFunction,ComponentPad*%
%ADD16HorizOval,2.300000X0.019758X0.289827X-0.019758X-0.289827X0*%
%TD*%
%TA.AperFunction,ComponentPad*%
%ADD17RotRect,1.600000X1.600000X120.000000*%
%TD*%
%TA.AperFunction,ComponentPad*%
%ADD18HorizOval,1.600000X0.000000X0.000000X0.000000X0.000000X0*%
%TD*%
%TA.AperFunction,ComponentPad*%
%ADD19HorizOval,2.300000X-0.202286X-0.959917X0.202286X0.959917X0*%
%TD*%
%TA.AperFunction,ComponentPad*%
%ADD20HorizOval,2.300000X-0.127802X0.260877X0.127802X-0.260877X0*%
%TD*%
%TA.AperFunction,ComponentPad*%
%ADD21RoundRect,0.250000X0.625000X-0.350000X0.625000X0.350000X-0.625000X0.350000X-0.625000X-0.350000X0*%
%TD*%
%TA.AperFunction,ComponentPad*%
%ADD22O,1.750000X1.200000*%
%TD*%
%TA.AperFunction,ComponentPad*%
%ADD23C,2.000000*%
%TD*%
%TA.AperFunction,ComponentPad*%
%ADD24RoundRect,0.500000X-0.683013X0.183013X-0.183013X-0.683013X0.683013X-0.183013X0.183013X0.683013X0*%
%TD*%
%TA.AperFunction,ComponentPad*%
%ADD25RoundRect,0.550000X-1.051314X0.720929X0.098686X-1.270929X1.051314X-0.720929X-0.098686X1.270929X0*%
%TD*%
%TA.AperFunction,ComponentPad*%
%ADD26R,1.700000X1.700000*%
%TD*%
%TA.AperFunction,ComponentPad*%
%ADD27O,1.700000X1.700000*%
%TD*%
%TA.AperFunction,ComponentPad*%
%ADD28HorizOval,2.300000X-0.443838X-0.874853X0.443838X0.874853X0*%
%TD*%
%TA.AperFunction,ComponentPad*%
%ADD29HorizOval,2.300000X-0.055928X0.285066X0.055928X-0.285066X0*%
%TD*%
%TA.AperFunction,ComponentPad*%
%ADD30C,1.800000*%
%TD*%
%TA.AperFunction,ComponentPad*%
%ADD31RoundRect,0.450000X-0.450000X-0.450000X0.450000X-0.450000X0.450000X0.450000X-0.450000X0.450000X0*%
%TD*%
%TA.AperFunction,ComponentPad*%
%ADD32O,1.800000X4.340000*%
%TD*%
%TA.AperFunction,SMDPad,CuDef*%
%ADD33RoundRect,0.090000X0.535000X-0.210000X0.535000X0.210000X-0.535000X0.210000X-0.535000X-0.210000X0*%
%TD*%
%TA.AperFunction,SMDPad,CuDef*%
%ADD34RoundRect,0.105000X-0.245000X-0.445000X0.245000X-0.445000X0.245000X0.445000X-0.245000X0.445000X0*%
%TD*%
%TA.AperFunction,ComponentPad*%
%ADD35C,2.100000*%
%TD*%
%TA.AperFunction,ViaPad*%
%ADD36C,0.800000*%
%TD*%
%TA.AperFunction,Conductor*%
%ADD37C,0.200000*%
%TD*%
%TA.AperFunction,Conductor*%
%ADD38C,0.500000*%
%TD*%
G04 APERTURE END LIST*
D10*
%TO.P,D19,1,K*%
%TO.N,row3*%
X169899650Y-129362950D03*
D11*
%TO.P,D19,2,A*%
%TO.N,Net-(D19-A)*%
X169899650Y-121742950D03*
%TD*%
D12*
%TO.P,D21,1,K*%
%TO.N,row3*%
X130935750Y-129356978D03*
D13*
%TO.P,D21,2,A*%
%TO.N,Net-(D21-A)*%
X128963549Y-121996623D03*
%TD*%
D14*
%TO.P,SW18,1,1*%
%TO.N,Net-(D18-A)*%
X109289548Y-106354200D03*
D15*
X109944404Y-105624370D03*
D16*
%TO.P,SW18,2,2*%
%TO.N,col5*%
X115619306Y-104104373D03*
D14*
X115639548Y-103814200D03*
%TD*%
D17*
%TO.P,D23,1,K*%
%TO.N,row3*%
X102209650Y-118425914D03*
D18*
%TO.P,D23,2,A*%
%TO.N,Net-(D23-A)*%
X98399650Y-111826800D03*
%TD*%
D14*
%TO.P,SW15,1,1*%
%TO.N,Net-(D15-A)*%
X166439648Y-103972850D03*
D15*
X167094504Y-103243020D03*
D16*
%TO.P,SW15,2,2*%
%TO.N,col2*%
X172769406Y-101723023D03*
D14*
X172789648Y-101432850D03*
%TD*%
D10*
%TO.P,D16,1,K*%
%TO.N,row2*%
X141799650Y-105550350D03*
D11*
%TO.P,D16,2,A*%
%TO.N,Net-(D16-A)*%
X141799650Y-97930350D03*
%TD*%
D10*
%TO.P,D18,1,K*%
%TO.N,row2*%
X103699550Y-112694200D03*
D11*
%TO.P,D18,2,A*%
%TO.N,Net-(D18-A)*%
X103699550Y-105074200D03*
%TD*%
D14*
%TO.P,SW22,1,1*%
%TO.N,Net-(D22-A)*%
X97339443Y-135923200D03*
D19*
X97541650Y-134963720D03*
D20*
%TO.P,SW22,2,2*%
%TO.N,col4*%
X101696262Y-130809914D03*
D14*
X101568705Y-130548496D03*
%TD*%
D10*
%TO.P,D15,1,K*%
%TO.N,row2*%
X160849650Y-110312850D03*
D11*
%TO.P,D15,2,A*%
%TO.N,Net-(D15-A)*%
X160849650Y-102692850D03*
%TD*%
D14*
%TO.P,SW6,1,1*%
%TO.N,Net-(D6-A)*%
X109289548Y-68254150D03*
D15*
X109944404Y-67524320D03*
D16*
%TO.P,SW6,2,2*%
%TO.N,col5*%
X115619306Y-66004323D03*
D14*
X115639548Y-65714150D03*
%TD*%
D21*
%TO.P,J2,1,Pin_1*%
%TO.N,+BATT*%
X88475316Y-105500000D03*
D22*
%TO.P,J2,2,Pin_2*%
%TO.N,GND*%
X88475316Y-103500000D03*
%TD*%
D10*
%TO.P,D10,1,K*%
%TO.N,row1*%
X141799650Y-86500350D03*
D11*
%TO.P,D10,2,A*%
%TO.N,Net-(D10-A)*%
X141799650Y-78880350D03*
%TD*%
D14*
%TO.P,SW5,1,1*%
%TO.N,Net-(D5-A)*%
X128340348Y-65872850D03*
D15*
X128995204Y-65143020D03*
D16*
%TO.P,SW5,2,2*%
%TO.N,col4*%
X134670106Y-63623023D03*
D14*
X134690348Y-63332850D03*
%TD*%
D10*
%TO.P,D5,1,K*%
%TO.N,row0*%
X122750350Y-72212850D03*
D11*
%TO.P,D5,2,A*%
%TO.N,Net-(D5-A)*%
X122750350Y-64592850D03*
%TD*%
D23*
%TO.P,SW23,A,A*%
%TO.N,ROT_A*%
X90799064Y-111975509D03*
%TO.P,SW23,B,B*%
%TO.N,ROT_B*%
X86468936Y-114475509D03*
D24*
%TO.P,SW23,C,C*%
%TO.N,GND*%
X88634000Y-113225509D03*
D25*
%TO.P,SW23,MP*%
%TO.N,N/C*%
X97233742Y-116920700D03*
X87534258Y-122520700D03*
D23*
%TO.P,SW23,S1,S1*%
%TO.N,Net-(D23-A)*%
X93718936Y-127032878D03*
%TO.P,SW23,S2,S2*%
%TO.N,col5*%
X98049064Y-124532878D03*
%TD*%
D26*
%TO.P,J1,1,Pin_1*%
%TO.N,CS*%
X98149650Y-98176800D03*
D27*
%TO.P,J1,2,Pin_2*%
%TO.N,GND*%
X95609650Y-98176800D03*
%TO.P,J1,3,Pin_3*%
%TO.N,VCC*%
X93069650Y-98176800D03*
%TO.P,J1,4,Pin_4*%
%TO.N,SCK*%
X90529650Y-98176800D03*
%TO.P,J1,5,Pin_5*%
%TO.N,MOSI*%
X87989650Y-98176800D03*
%TD*%
D10*
%TO.P,D3,1,K*%
%TO.N,row0*%
X160849650Y-69212850D03*
D11*
%TO.P,D3,2,A*%
%TO.N,Net-(D3-A)*%
X160849650Y-61592850D03*
%TD*%
D14*
%TO.P,SW20,1,1*%
%TO.N,Net-(D20-A)*%
X137864648Y-123022950D03*
D15*
X138519504Y-122293120D03*
D16*
%TO.P,SW20,2,2*%
%TO.N,col2*%
X144194406Y-120773123D03*
D14*
X144214648Y-120482950D03*
%TD*%
D10*
%TO.P,D6,1,K*%
%TO.N,row0*%
X103699550Y-74594150D03*
D11*
%TO.P,D6,2,A*%
%TO.N,Net-(D6-A)*%
X103699550Y-66974150D03*
%TD*%
D10*
%TO.P,D17,1,K*%
%TO.N,row2*%
X122750350Y-110312850D03*
D11*
%TO.P,D17,2,A*%
%TO.N,Net-(D17-A)*%
X122750350Y-102692850D03*
%TD*%
D10*
%TO.P,D7,1,K*%
%TO.N,row1*%
X198949595Y-100787850D03*
D11*
%TO.P,D7,2,A*%
%TO.N,Net-(D7-A)*%
X198949595Y-93167850D03*
%TD*%
D14*
%TO.P,SW13,1,1*%
%TO.N,Net-(D13-A)*%
X204539593Y-113497950D03*
D15*
X205194449Y-112768120D03*
D16*
%TO.P,SW13,2,2*%
%TO.N,col0*%
X210869351Y-111248123D03*
D14*
X210889593Y-110957950D03*
%TD*%
D10*
%TO.P,D2,1,K*%
%TO.N,row0*%
X179899600Y-81737850D03*
D11*
%TO.P,D2,2,A*%
%TO.N,Net-(D2-A)*%
X179899600Y-74117850D03*
%TD*%
D14*
%TO.P,SW3,1,1*%
%TO.N,Net-(D3-A)*%
X166439648Y-65872850D03*
D15*
X167094504Y-65143020D03*
D16*
%TO.P,SW3,2,2*%
%TO.N,col2*%
X172769406Y-63623023D03*
D14*
X172789648Y-63332850D03*
%TD*%
%TO.P,SW19,1,1*%
%TO.N,Net-(D19-A)*%
X156914648Y-123022950D03*
D15*
X157569504Y-122293120D03*
D16*
%TO.P,SW19,2,2*%
%TO.N,col1*%
X163244406Y-120773123D03*
D14*
X163264648Y-120482950D03*
%TD*%
D17*
%TO.P,D22,1,K*%
%TO.N,row3*%
X112199650Y-135226800D03*
D18*
%TO.P,D22,2,A*%
%TO.N,Net-(D22-A)*%
X108389650Y-128627686D03*
%TD*%
D10*
%TO.P,D1,1,K*%
%TO.N,row0*%
X198949595Y-81737850D03*
D11*
%TO.P,D1,2,A*%
%TO.N,Net-(D1-A)*%
X198949595Y-74117850D03*
%TD*%
D14*
%TO.P,SW21,1,1*%
%TO.N,Net-(D21-A)*%
X116752622Y-126804799D03*
D28*
X117196271Y-125930347D03*
D29*
%TO.P,SW21,2,2*%
%TO.N,col3*%
X122284401Y-122993370D03*
D14*
X122228851Y-122707846D03*
%TD*%
D10*
%TO.P,D11,1,K*%
%TO.N,row1*%
X122750350Y-93262850D03*
D11*
%TO.P,D11,2,A*%
%TO.N,Net-(D11-A)*%
X122750350Y-85642850D03*
%TD*%
D10*
%TO.P,D8,1,K*%
%TO.N,row1*%
X179899600Y-100787850D03*
D11*
%TO.P,D8,2,A*%
%TO.N,Net-(D8-A)*%
X179899600Y-93167850D03*
%TD*%
D10*
%TO.P,D12,1,K*%
%TO.N,row1*%
X103699550Y-93644150D03*
D11*
%TO.P,D12,2,A*%
%TO.N,Net-(D12-A)*%
X103699550Y-86024150D03*
%TD*%
D14*
%TO.P,SW9,1,1*%
%TO.N,Net-(D9-A)*%
X166439648Y-84922850D03*
D15*
X167094504Y-84193020D03*
D16*
%TO.P,SW9,2,2*%
%TO.N,col2*%
X172769406Y-82673023D03*
D14*
X172789648Y-82382850D03*
%TD*%
%TO.P,SW14,1,1*%
%TO.N,Net-(D14-A)*%
X185489598Y-113497950D03*
D15*
X186144454Y-112768120D03*
D16*
%TO.P,SW14,2,2*%
%TO.N,col1*%
X191819356Y-111248123D03*
D14*
X191839598Y-110957950D03*
%TD*%
%TO.P,SW16,1,1*%
%TO.N,Net-(D16-A)*%
X147389648Y-99210350D03*
D15*
X148044504Y-98480520D03*
D16*
%TO.P,SW16,2,2*%
%TO.N,col3*%
X153719406Y-96960523D03*
D14*
X153739648Y-96670350D03*
%TD*%
D10*
%TO.P,D20,1,K*%
%TO.N,row3*%
X150774650Y-129362950D03*
D11*
%TO.P,D20,2,A*%
%TO.N,Net-(D20-A)*%
X150774650Y-121742950D03*
%TD*%
D14*
%TO.P,SW12,1,1*%
%TO.N,Net-(D12-A)*%
X109289548Y-87304150D03*
D15*
X109944404Y-86574320D03*
D16*
%TO.P,SW12,2,2*%
%TO.N,col5*%
X115619306Y-85054323D03*
D14*
X115639548Y-84764150D03*
%TD*%
%TO.P,SW2,1,1*%
%TO.N,Net-(D2-A)*%
X185489598Y-75397850D03*
D15*
X186144454Y-74668020D03*
D16*
%TO.P,SW2,2,2*%
%TO.N,col1*%
X191819356Y-73148023D03*
D14*
X191839598Y-72857850D03*
%TD*%
%TO.P,SW1,1,1*%
%TO.N,Net-(D1-A)*%
X204539593Y-75397850D03*
D15*
X205194449Y-74668020D03*
D16*
%TO.P,SW1,2,2*%
%TO.N,col0*%
X210869351Y-73148023D03*
D14*
X210889593Y-72857850D03*
%TD*%
%TO.P,SW7,1,1*%
%TO.N,Net-(D7-A)*%
X204539593Y-94447850D03*
D15*
X205194449Y-93718020D03*
D16*
%TO.P,SW7,2,2*%
%TO.N,col0*%
X210869351Y-92198023D03*
D14*
X210889593Y-91907850D03*
%TD*%
%TO.P,SW11,1,1*%
%TO.N,Net-(D11-A)*%
X128340348Y-84922850D03*
D15*
X128995204Y-84193020D03*
D16*
%TO.P,SW11,2,2*%
%TO.N,col4*%
X134670106Y-82673023D03*
D14*
X134690348Y-82382850D03*
%TD*%
%TO.P,SW8,1,1*%
%TO.N,Net-(D8-A)*%
X185489598Y-94447850D03*
D15*
X186144454Y-93718020D03*
D16*
%TO.P,SW8,2,2*%
%TO.N,col1*%
X191819356Y-92198023D03*
D14*
X191839598Y-91907850D03*
%TD*%
%TO.P,SW4,1,1*%
%TO.N,Net-(D4-A)*%
X147389648Y-61110350D03*
D15*
X148044504Y-60380520D03*
D16*
%TO.P,SW4,2,2*%
%TO.N,col3*%
X153719406Y-58860523D03*
D14*
X153739648Y-58570350D03*
%TD*%
%TO.P,SW10,1,1*%
%TO.N,Net-(D10-A)*%
X147389648Y-80160350D03*
D15*
X148044504Y-79430520D03*
D16*
%TO.P,SW10,2,2*%
%TO.N,col3*%
X153719406Y-77910523D03*
D14*
X153739648Y-77620350D03*
%TD*%
D30*
%TO.P,U1,1,P0.06*%
%TO.N,CS*%
X85449650Y-66356800D03*
%TO.P,U1,2,P0.08*%
%TO.N,unconnected-(U1-P0.08-Pad2)*%
X85449650Y-68896800D03*
D31*
%TO.P,U1,3,GND*%
%TO.N,GND*%
X85449650Y-71436800D03*
%TO.P,U1,4,GND*%
X85449650Y-73976800D03*
D30*
%TO.P,U1,5,P0.17*%
%TO.N,MOSI*%
X85449650Y-76516800D03*
%TO.P,U1,6,P0.20*%
%TO.N,SCK*%
X85449650Y-79056800D03*
%TO.P,U1,7,P0.22*%
%TO.N,ROT_A*%
X85449650Y-81596800D03*
%TO.P,U1,8,P0.24*%
%TO.N,ROT_B*%
X85449650Y-84136800D03*
%TO.P,U1,9,P1.00*%
%TO.N,row0*%
X85449650Y-86676800D03*
%TO.P,U1,10,P0.11*%
%TO.N,row1*%
X85449650Y-89216800D03*
%TO.P,U1,11,P1.04-LF*%
%TO.N,row2*%
X85449650Y-91756800D03*
%TO.P,U1,12,P1.06-LF*%
%TO.N,row3*%
X85449650Y-94296800D03*
D32*
%TO.P,U1,13,BAT+*%
%TO.N,BAT_SW*%
X100689650Y-65086800D03*
D31*
%TO.P,U1,14,GND*%
%TO.N,GND*%
X100689650Y-68896800D03*
D30*
%TO.P,U1,15,RST*%
%TO.N,RST*%
X100689650Y-71436800D03*
%TO.P,U1,16,3V3*%
%TO.N,VCC*%
X100689650Y-73976800D03*
%TO.P,U1,17,P0.31-LF*%
%TO.N,col5*%
X100689650Y-76516800D03*
%TO.P,U1,18,P0.29-LF*%
%TO.N,col4*%
X100689650Y-79056800D03*
%TO.P,U1,19,P0.02-LF*%
%TO.N,col3*%
X100689650Y-81596800D03*
%TO.P,U1,20,P1.15-LF*%
%TO.N,col2*%
X100689650Y-84136800D03*
%TO.P,U1,21,P1.13-LF*%
%TO.N,col1*%
X100689650Y-86676800D03*
%TO.P,U1,22,P1.11-LF*%
%TO.N,col0*%
X100689650Y-89216800D03*
%TO.P,U1,23,P0-10-LF*%
%TO.N,unconnected-(U1-P0-10-LF-Pad23)*%
X100689650Y-91756800D03*
%TO.P,U1,24,P0.09-LF*%
%TO.N,unconnected-(U1-P0.09-LF-Pad24)*%
X100689650Y-94296800D03*
%TO.P,U1,25,P1.01-LF*%
%TO.N,unconnected-(U1-P1.01-LF-Pad25)*%
X87989650Y-89216800D03*
%TO.P,U1,26,P1.02-LF*%
%TO.N,unconnected-(U1-P1.02-LF-Pad26)*%
X90529650Y-89216800D03*
%TO.P,U1,27,P1-07-LF*%
%TO.N,unconnected-(U1-P1-07-LF-Pad27)*%
X93069650Y-89216800D03*
D31*
%TO.P,U1,28,GND*%
%TO.N,GND*%
X85449650Y-63816800D03*
D30*
%TO.P,U1,29,BAT+*%
%TO.N,BAT_SW*%
X100689650Y-63816800D03*
%TD*%
D10*
%TO.P,D13,1,K*%
%TO.N,row2*%
X198949595Y-119837950D03*
D11*
%TO.P,D13,2,A*%
%TO.N,Net-(D13-A)*%
X198949595Y-112217950D03*
%TD*%
D10*
%TO.P,D14,1,K*%
%TO.N,row2*%
X179899600Y-117837950D03*
D11*
%TO.P,D14,2,A*%
%TO.N,Net-(D14-A)*%
X179899600Y-110217950D03*
%TD*%
D10*
%TO.P,D9,1,K*%
%TO.N,row1*%
X160849650Y-91262850D03*
D11*
%TO.P,D9,2,A*%
%TO.N,Net-(D9-A)*%
X160849650Y-83642850D03*
%TD*%
D14*
%TO.P,SW17,1,1*%
%TO.N,Net-(D17-A)*%
X128340348Y-103972850D03*
D15*
X128995204Y-103243020D03*
D16*
%TO.P,SW17,2,2*%
%TO.N,col4*%
X134670106Y-101723023D03*
D14*
X134690348Y-101432850D03*
%TD*%
D10*
%TO.P,D4,1,K*%
%TO.N,row0*%
X141799650Y-72212850D03*
D11*
%TO.P,D4,2,A*%
%TO.N,Net-(D4-A)*%
X141799650Y-64592850D03*
%TD*%
D33*
%TO.P,SW25,1,A*%
%TO.N,BAT_SW*%
X83425316Y-101426800D03*
%TO.P,SW25,2,B*%
%TO.N,+BATT*%
X83425316Y-98426800D03*
%TO.P,SW25,3,C*%
%TO.N,unconnected-(SW25-C-Pad3)*%
X83425316Y-96926800D03*
D34*
%TO.P,SW25,MP*%
%TO.N,N/C*%
X82575316Y-95476800D03*
X80275316Y-95476800D03*
X82575316Y-102876800D03*
X80275316Y-102876800D03*
%TD*%
D30*
%TO.P,SW24,1,1*%
%TO.N,RST*%
X82499650Y-105676800D03*
%TO.P,SW24,2,2*%
%TO.N,GND*%
X82499650Y-110676800D03*
D35*
%TO.P,SW24,MP*%
%TO.N,N/C*%
X84999650Y-111676800D03*
X84999650Y-104676800D03*
%TD*%
D36*
%TO.N,CS*%
X100000000Y-97700000D03*
%TO.N,GND*%
X95700000Y-74476800D03*
%TO.N,VCC*%
X93200000Y-92800000D03*
X91500000Y-95600000D03*
%TO.N,SCK*%
X89165284Y-87634716D03*
X88457823Y-93044725D03*
%TO.N,MOSI*%
X89432753Y-93267247D03*
X92429650Y-91100000D03*
%TO.N,col0*%
X112900000Y-100100000D03*
%TO.N,col1*%
X114899548Y-100279295D03*
%TO.N,col2*%
X169400000Y-93300000D03*
X114200000Y-97700000D03*
%TO.N,col3*%
X151200000Y-92300000D03*
X114200000Y-96400000D03*
%TO.N,col4*%
X133200000Y-95700000D03*
X114900000Y-95200000D03*
%TO.N,ROT_A*%
X90500000Y-94400000D03*
%TD*%
D37*
%TO.N,CS*%
X100000000Y-97700000D02*
X100000000Y-97075000D01*
X94400000Y-91475000D02*
X94400000Y-75307150D01*
X100000000Y-97075000D02*
X94400000Y-91475000D01*
X94400000Y-75307150D02*
X85449650Y-66356800D01*
D38*
%TO.N,GND*%
X88634000Y-112089963D02*
X88634000Y-113225509D01*
X95609650Y-98176800D02*
X90286450Y-103500000D01*
X90286450Y-103500000D02*
X88475316Y-103500000D01*
X96909650Y-99476800D02*
X95609650Y-98176800D01*
X100850000Y-98850000D02*
X100223200Y-99476800D01*
X95700000Y-91275000D02*
X100850000Y-96425000D01*
X88475316Y-103500000D02*
X89800000Y-104824684D01*
X88634000Y-111811150D02*
X82499650Y-105676800D01*
X100223200Y-99476800D02*
X96909650Y-99476800D01*
X100850000Y-96425000D02*
X100850000Y-98850000D01*
X89800000Y-110923963D02*
X88634000Y-112089963D01*
X88634000Y-113225509D02*
X88634000Y-111811150D01*
X89800000Y-104824684D02*
X89800000Y-110923963D01*
X95700000Y-74476800D02*
X95700000Y-91275000D01*
%TO.N,VCC*%
X91500000Y-94500000D02*
X93200000Y-92800000D01*
X91500000Y-95600000D02*
X91500000Y-94500000D01*
D37*
%TO.N,SCK*%
X89189650Y-89713857D02*
X88400000Y-90503507D01*
X88400000Y-92986902D02*
X88457823Y-93044725D01*
X89165284Y-87634716D02*
X89165284Y-88835377D01*
X88400000Y-90503507D02*
X88400000Y-92986902D01*
X89189650Y-88859743D02*
X89189650Y-89713857D01*
X89165284Y-88835377D02*
X89189650Y-88859743D01*
%TO.N,MOSI*%
X92489950Y-91100000D02*
X93900000Y-92510050D01*
X91210050Y-96300000D02*
X89432753Y-94522703D01*
X93900000Y-94189950D02*
X91789950Y-96300000D01*
X93900000Y-92510050D02*
X93900000Y-94189950D01*
X89432753Y-94522703D02*
X89432753Y-93267247D01*
X92429650Y-91100000D02*
X92489950Y-91100000D01*
X91789950Y-96300000D02*
X91210050Y-96300000D01*
D38*
%TO.N,+BATT*%
X87150316Y-104175000D02*
X87150316Y-102151800D01*
X87150316Y-102151800D02*
X83425316Y-98426800D01*
X88475316Y-105500000D02*
X87150316Y-104175000D01*
D37*
%TO.N,col0*%
X112900000Y-100100000D02*
X112400000Y-100100000D01*
X210849593Y-92487850D02*
X210849593Y-73437850D01*
X210849593Y-111537950D02*
X210849593Y-92487850D01*
X112400000Y-100100000D02*
X101516800Y-89216800D01*
X101516800Y-89216800D02*
X100689650Y-89216800D01*
%TO.N,col1*%
X112265686Y-99400000D02*
X101889650Y-89023964D01*
X101889650Y-87876800D02*
X100689650Y-86676800D01*
X191839598Y-91907850D02*
X191839598Y-73477850D01*
X191799598Y-111537950D02*
X191839598Y-111497950D01*
X190462050Y-111537950D02*
X191799598Y-111537950D01*
X169730776Y-114556822D02*
X184497860Y-114556822D01*
X191839598Y-111497950D02*
X191839598Y-91907850D01*
X184497860Y-114556822D02*
X184888988Y-114947950D01*
X113900000Y-99400000D02*
X112265686Y-99400000D01*
X114779295Y-100279295D02*
X113900000Y-99400000D01*
X163224648Y-121062950D02*
X169730776Y-114556822D01*
X184888988Y-114947950D02*
X187052050Y-114947950D01*
X187052050Y-114947950D02*
X190462050Y-111537950D01*
X114899548Y-100279295D02*
X114779295Y-100279295D01*
X191839598Y-73477850D02*
X191799598Y-73437850D01*
X101889650Y-89023964D02*
X101889650Y-87876800D01*
%TO.N,col2*%
X169400000Y-98663202D02*
X172749648Y-102012850D01*
X100689650Y-85476800D02*
X101186707Y-85476800D01*
X144594648Y-120642950D02*
X152804773Y-120642950D01*
X101186707Y-85476800D02*
X102000000Y-86290093D01*
X100689650Y-84136800D02*
X100689650Y-85476800D01*
X152804773Y-120642950D02*
X171434873Y-102012850D01*
X172749648Y-82962850D02*
X172749648Y-63912850D01*
X102000000Y-87421464D02*
X102289650Y-87711115D01*
X111131372Y-97700000D02*
X114200000Y-97700000D01*
X172749648Y-102012850D02*
X172749648Y-82962850D01*
X102289650Y-88858278D02*
X111131372Y-97700000D01*
X144174648Y-121062950D02*
X144594648Y-120642950D01*
X102289650Y-87711115D02*
X102289650Y-88858278D01*
X171434873Y-102012850D02*
X172749648Y-102012850D01*
X102000000Y-86290093D02*
X102000000Y-87421464D01*
X169400000Y-93300000D02*
X169400000Y-98663202D01*
%TO.N,col3*%
X146627060Y-102975350D02*
X152352060Y-97250350D01*
X151200000Y-92300000D02*
X151200000Y-94130702D01*
X101889650Y-82796800D02*
X101889650Y-85614057D01*
X110397058Y-96400000D02*
X114200000Y-96400000D01*
X153699648Y-78200350D02*
X153699648Y-59150350D01*
X152352060Y-97250350D02*
X153699648Y-97250350D01*
X102689650Y-88692592D02*
X110397058Y-96400000D01*
X102689650Y-87545430D02*
X102689650Y-88692592D01*
X102400000Y-87255779D02*
X102689650Y-87545430D01*
X151200000Y-94130702D02*
X153739648Y-96670350D01*
X126121564Y-123278436D02*
X146424650Y-102975350D01*
X102400000Y-86124408D02*
X102400000Y-87255779D01*
X100689650Y-81596800D02*
X101889650Y-82796800D01*
X101889650Y-85614057D02*
X102400000Y-86124408D01*
X146424650Y-102975350D02*
X146627060Y-102975350D01*
X122340329Y-123278436D02*
X126121564Y-123278436D01*
X153699648Y-97250350D02*
X153699648Y-78200350D01*
%TO.N,col4*%
X134690348Y-83002850D02*
X134650348Y-82962850D01*
X109762744Y-95200000D02*
X114900000Y-95200000D01*
X104244819Y-131070791D02*
X133882760Y-101432850D01*
X134690348Y-101432850D02*
X134690348Y-83002850D01*
X133200000Y-99942502D02*
X134690348Y-101432850D01*
X100689650Y-79056800D02*
X104799550Y-83166700D01*
X104799550Y-83166700D02*
X104799550Y-90236806D01*
X133882760Y-101432850D02*
X134690348Y-101432850D01*
X101824064Y-131070791D02*
X104244819Y-131070791D01*
X104799550Y-90236806D02*
X109762744Y-95200000D01*
X134650348Y-82962850D02*
X134650348Y-63912850D01*
X133200000Y-95700000D02*
X133200000Y-99942502D01*
%TO.N,col5*%
X98049064Y-120629909D02*
X114284773Y-104394200D01*
X115599548Y-94700000D02*
X115599548Y-85344150D01*
X100689650Y-76516800D02*
X105199550Y-81026700D01*
X105199550Y-81026700D02*
X105199550Y-90071120D01*
X114284773Y-104394200D02*
X115599548Y-104394200D01*
X98049064Y-124532878D02*
X98049064Y-120629909D01*
X115010050Y-94100000D02*
X115599548Y-94100000D01*
X105199550Y-90071120D02*
X109928430Y-94800000D01*
X115599548Y-85344150D02*
X115599548Y-66294150D01*
X109928430Y-94800000D02*
X114310050Y-94800000D01*
X115599548Y-104394200D02*
X115599548Y-94700000D01*
X114310050Y-94800000D02*
X115010050Y-94100000D01*
X115599548Y-94100000D02*
X115599548Y-94700000D01*
%TO.N,ROT_A*%
X91729650Y-87876800D02*
X85449650Y-81596800D01*
X91729650Y-93170350D02*
X91729650Y-87876800D01*
X90500000Y-94400000D02*
X91729650Y-93170350D01*
D38*
%TO.N,BAT_SW*%
X83425316Y-101426800D02*
X83425316Y-100984948D01*
X81400000Y-95829914D02*
X81400000Y-65686470D01*
X81400000Y-65686470D02*
X84686470Y-62400000D01*
X83425316Y-100984948D02*
X80400000Y-97959632D01*
X84686470Y-62400000D02*
X96732850Y-62400000D01*
X80400000Y-97959632D02*
X80400000Y-96829914D01*
X96732850Y-62400000D02*
X100689650Y-66356800D01*
X80400000Y-96829914D02*
X81400000Y-95829914D01*
%TD*%
M02*
