%TF.GenerationSoftware,KiCad,Pcbnew,7.0.11*%
%TF.CreationDate,2026-06-23T22:25:44+02:00*%
%TF.ProjectId,dual-blades-reverse,6475616c-2d62-46c6-9164-65732d726576,rev?*%
%TF.SameCoordinates,Original*%
%TF.FileFunction,Soldermask,Bot*%
%TF.FilePolarity,Negative*%
%FSLAX46Y46*%
G04 Gerber Fmt 4.6, Leading zero omitted, Abs format (unit mm)*
G04 Created by KiCad (PCBNEW 7.0.11) date 2026-06-23 22:25:44*
%MOMM*%
%LPD*%
G01*
G04 APERTURE LIST*
G04 Aperture macros list*
%AMRoundRect*
0 Rectangle with rounded corners*
0 $1 Rounding radius*
0 $2 $3 $4 $5 $6 $7 $8 $9 X,Y pos of 4 corners*
0 Add a 4 corners polygon primitive as box body*
4,1,4,$2,$3,$4,$5,$6,$7,$8,$9,$2,$3,0*
0 Add four circle primitives for the rounded corners*
1,1,$1+$1,$2,$3*
1,1,$1+$1,$4,$5*
1,1,$1+$1,$6,$7*
1,1,$1+$1,$8,$9*
0 Add four rect primitives between the rounded corners*
20,1,$1+$1,$2,$3,$4,$5,0*
20,1,$1+$1,$4,$5,$6,$7,0*
20,1,$1+$1,$6,$7,$8,$9,0*
20,1,$1+$1,$8,$9,$2,$3,0*%
%AMHorizOval*
0 Thick line with rounded ends*
0 $1 width*
0 $2 $3 position (X,Y) of the first rounded end (center of the circle)*
0 $4 $5 position (X,Y) of the second rounded end (center of the circle)*
0 Add line between two ends*
20,1,$1,$2,$3,$4,$5,0*
0 Add two circle primitives to create the rounded ends*
1,1,$1,$2,$3*
1,1,$1,$4,$5*%
%AMRotRect*
0 Rectangle, with rotation*
0 The origin of the aperture is its center*
0 $1 length*
0 $2 width*
0 $3 Rotation angle, in degrees counterclockwise*
0 Add horizontal line*
21,1,$1,$2,0,0,$3*%
G04 Aperture macros list end*
%ADD10R,1.600000X1.600000*%
%ADD11O,1.600000X1.600000*%
%ADD12RotRect,1.600000X1.600000X105.000000*%
%ADD13HorizOval,1.600000X0.000000X0.000000X0.000000X0.000000X0*%
%ADD14C,1.750000*%
%ADD15C,3.987800*%
%ADD16C,2.300000*%
%ADD17HorizOval,2.300000X-0.655144X-0.730170X0.655144X0.730170X0*%
%ADD18HorizOval,2.300000X0.019758X0.289827X-0.019758X-0.289827X0*%
%ADD19RotRect,1.600000X1.600000X120.000000*%
%ADD20HorizOval,1.600000X0.000000X0.000000X0.000000X0.000000X0*%
%ADD21C,4.300000*%
%ADD22HorizOval,2.300000X-0.202286X-0.959917X0.202286X0.959917X0*%
%ADD23HorizOval,2.300000X-0.127802X0.260877X0.127802X-0.260877X0*%
%ADD24RoundRect,0.250000X0.625000X-0.350000X0.625000X0.350000X-0.625000X0.350000X-0.625000X-0.350000X0*%
%ADD25O,1.750000X1.200000*%
%ADD26C,2.000000*%
%ADD27RoundRect,0.500000X-0.683013X0.183013X-0.183013X-0.683013X0.683013X-0.183013X0.183013X0.683013X0*%
%ADD28RoundRect,0.550000X-1.051314X0.720929X0.098686X-1.270929X1.051314X-0.720929X-0.098686X1.270929X0*%
%ADD29R,1.700000X1.700000*%
%ADD30O,1.700000X1.700000*%
%ADD31HorizOval,2.300000X-0.443838X-0.874853X0.443838X0.874853X0*%
%ADD32HorizOval,2.300000X-0.055928X0.285066X0.055928X-0.285066X0*%
%ADD33C,1.800000*%
%ADD34RoundRect,0.450000X-0.450000X-0.450000X0.450000X-0.450000X0.450000X0.450000X-0.450000X0.450000X0*%
%ADD35O,1.800000X4.340000*%
%ADD36C,0.850000*%
%ADD37RoundRect,0.090000X0.535000X-0.210000X0.535000X0.210000X-0.535000X0.210000X-0.535000X-0.210000X0*%
%ADD38RoundRect,0.105000X-0.245000X-0.445000X0.245000X-0.445000X0.245000X0.445000X-0.245000X0.445000X0*%
%ADD39C,2.100000*%
G04 APERTURE END LIST*
D10*
%TO.C,D19*%
X169899650Y-129362950D03*
D11*
X169899650Y-121742950D03*
%TD*%
D12*
%TO.C,D21*%
X130935750Y-129356978D03*
D13*
X128963549Y-121996623D03*
%TD*%
D14*
%TO.C,SW18*%
X108019548Y-108894200D03*
D15*
X113099548Y-108894200D03*
D14*
X118179548Y-108894200D03*
D16*
X109289548Y-106354200D03*
D17*
X109944404Y-105624370D03*
D18*
X115619306Y-104104373D03*
D16*
X115639548Y-103814200D03*
%TD*%
D19*
%TO.C,D23*%
X102209650Y-118425914D03*
D20*
X98399650Y-111826800D03*
%TD*%
D21*
%TO.C,H1*%
X198824600Y-87462900D03*
%TD*%
D14*
%TO.C,SW15*%
X165169648Y-106512850D03*
D15*
X170249648Y-106512850D03*
D14*
X175329648Y-106512850D03*
D16*
X166439648Y-103972850D03*
D17*
X167094504Y-103243020D03*
D18*
X172769406Y-101723023D03*
D16*
X172789648Y-101432850D03*
%TD*%
D10*
%TO.C,D16*%
X141799650Y-105550350D03*
D11*
X141799650Y-97930350D03*
%TD*%
D10*
%TO.C,D18*%
X103699550Y-112694200D03*
D11*
X103699550Y-105074200D03*
%TD*%
D14*
%TO.C,SW22*%
X97509591Y-138757905D03*
D15*
X101909000Y-136217905D03*
D14*
X106308409Y-133677905D03*
D16*
X97339443Y-135923200D03*
D22*
X97541650Y-134963720D03*
D23*
X101696262Y-130809914D03*
D16*
X101568705Y-130548496D03*
%TD*%
D10*
%TO.C,D15*%
X160849650Y-110312850D03*
D11*
X160849650Y-102692850D03*
%TD*%
D14*
%TO.C,SW6*%
X108019548Y-70794150D03*
D15*
X113099548Y-70794150D03*
D14*
X118179548Y-70794150D03*
D16*
X109289548Y-68254150D03*
D17*
X109944404Y-67524320D03*
D18*
X115619306Y-66004323D03*
D16*
X115639548Y-65714150D03*
%TD*%
D24*
%TO.C,J2*%
X88475316Y-105500000D03*
D25*
X88475316Y-103500000D03*
%TD*%
D10*
%TO.C,D10*%
X141799650Y-86500350D03*
D11*
X141799650Y-78880350D03*
%TD*%
D14*
%TO.C,SW5*%
X127070348Y-68412850D03*
D15*
X132150348Y-68412850D03*
D14*
X137230348Y-68412850D03*
D16*
X128340348Y-65872850D03*
D17*
X128995204Y-65143020D03*
D18*
X134670106Y-63623023D03*
D16*
X134690348Y-63332850D03*
%TD*%
D10*
%TO.C,D5*%
X122750350Y-72212850D03*
D11*
X122750350Y-64592850D03*
%TD*%
D26*
%TO.C,SW23*%
X90799064Y-111975509D03*
X86468936Y-114475509D03*
D27*
X88634000Y-113225509D03*
D28*
X97233742Y-116920700D03*
X87534258Y-122520700D03*
D26*
X93718936Y-127032878D03*
X98049064Y-124532878D03*
%TD*%
D29*
%TO.C,J1*%
X98149650Y-98176800D03*
D30*
X95609650Y-98176800D03*
X93069650Y-98176800D03*
X90529650Y-98176800D03*
X87989650Y-98176800D03*
%TD*%
D10*
%TO.C,D3*%
X160849650Y-69212850D03*
D11*
X160849650Y-61592850D03*
%TD*%
D14*
%TO.C,SW20*%
X136594648Y-125562950D03*
D15*
X141674648Y-125562950D03*
D14*
X146754648Y-125562950D03*
D16*
X137864648Y-123022950D03*
D17*
X138519504Y-122293120D03*
D18*
X144194406Y-120773123D03*
D16*
X144214648Y-120482950D03*
%TD*%
D10*
%TO.C,D6*%
X103699550Y-74594150D03*
D11*
X103699550Y-66974150D03*
%TD*%
D10*
%TO.C,D17*%
X122750350Y-110312850D03*
D11*
X122750350Y-102692850D03*
%TD*%
D10*
%TO.C,D7*%
X198949595Y-100787850D03*
D11*
X198949595Y-93167850D03*
%TD*%
D14*
%TO.C,SW13*%
X203269593Y-116037950D03*
D15*
X208349593Y-116037950D03*
D14*
X213429593Y-116037950D03*
D16*
X204539593Y-113497950D03*
D17*
X205194449Y-112768120D03*
D18*
X210869351Y-111248123D03*
D16*
X210889593Y-110957950D03*
%TD*%
D21*
%TO.C,H5*%
X107160000Y-122832300D03*
%TD*%
D10*
%TO.C,D2*%
X179899600Y-81737850D03*
D11*
X179899600Y-74117850D03*
%TD*%
D14*
%TO.C,SW3*%
X165169648Y-68412850D03*
D15*
X170249648Y-68412850D03*
D14*
X175329648Y-68412850D03*
D16*
X166439648Y-65872850D03*
D17*
X167094504Y-65143020D03*
D18*
X172769406Y-63623023D03*
D16*
X172789648Y-63332850D03*
%TD*%
D14*
%TO.C,SW19*%
X155644648Y-125562950D03*
D15*
X160724648Y-125562950D03*
D14*
X165804648Y-125562950D03*
D16*
X156914648Y-123022950D03*
D17*
X157569504Y-122293120D03*
D18*
X163244406Y-120773123D03*
D16*
X163264648Y-120482950D03*
%TD*%
D19*
%TO.C,D22*%
X112199650Y-135226800D03*
D20*
X108389650Y-128627686D03*
%TD*%
D10*
%TO.C,D1*%
X198949595Y-81737850D03*
D11*
X198949595Y-74117850D03*
%TD*%
D14*
%TO.C,SW21*%
X116183297Y-129586951D03*
D15*
X121090200Y-128272150D03*
D14*
X125997103Y-126957349D03*
D16*
X116752622Y-126804799D03*
D31*
X117196271Y-125930347D03*
D32*
X122284401Y-122993370D03*
D16*
X122228851Y-122707846D03*
%TD*%
D10*
%TO.C,D11*%
X122750350Y-93262850D03*
D11*
X122750350Y-85642850D03*
%TD*%
D10*
%TO.C,D8*%
X179899600Y-100787850D03*
D11*
X179899600Y-93167850D03*
%TD*%
D10*
%TO.C,D12*%
X103699550Y-93644150D03*
D11*
X103699550Y-86024150D03*
%TD*%
D21*
%TO.C,H2*%
X122624700Y-79128500D03*
%TD*%
D14*
%TO.C,SW9*%
X165169648Y-87462850D03*
D15*
X170249648Y-87462850D03*
D14*
X175329648Y-87462850D03*
D16*
X166439648Y-84922850D03*
D17*
X167094504Y-84193020D03*
D18*
X172769406Y-82673023D03*
D16*
X172789648Y-82382850D03*
%TD*%
D21*
%TO.C,H4*%
X175757900Y-122438200D03*
%TD*%
D14*
%TO.C,SW14*%
X184219598Y-116037950D03*
D15*
X189299598Y-116037950D03*
D14*
X194379598Y-116037950D03*
D16*
X185489598Y-113497950D03*
D17*
X186144454Y-112768120D03*
D18*
X191819356Y-111248123D03*
D16*
X191839598Y-110957950D03*
%TD*%
D14*
%TO.C,SW16*%
X146119648Y-101750350D03*
D15*
X151199648Y-101750350D03*
D14*
X156279648Y-101750350D03*
D16*
X147389648Y-99210350D03*
D17*
X148044504Y-98480520D03*
D18*
X153719406Y-96960523D03*
D16*
X153739648Y-96670350D03*
%TD*%
D10*
%TO.C,D20*%
X150774650Y-129362950D03*
D11*
X150774650Y-121742950D03*
%TD*%
D14*
%TO.C,SW12*%
X108019548Y-89844150D03*
D15*
X113099548Y-89844150D03*
D14*
X118179548Y-89844150D03*
D16*
X109289548Y-87304150D03*
D17*
X109944404Y-86574320D03*
D18*
X115619306Y-85054323D03*
D16*
X115639548Y-84764150D03*
%TD*%
D14*
%TO.C,SW2*%
X184219598Y-77937850D03*
D15*
X189299598Y-77937850D03*
D14*
X194379598Y-77937850D03*
D16*
X185489598Y-75397850D03*
D17*
X186144454Y-74668020D03*
D18*
X191819356Y-73148023D03*
D16*
X191839598Y-72857850D03*
%TD*%
D14*
%TO.C,SW1*%
X203269593Y-77937850D03*
D15*
X208349593Y-77937850D03*
D14*
X213429593Y-77937850D03*
D16*
X204539593Y-75397850D03*
D17*
X205194449Y-74668020D03*
D18*
X210869351Y-73148023D03*
D16*
X210889593Y-72857850D03*
%TD*%
D14*
%TO.C,SW7*%
X203269593Y-96987850D03*
D15*
X208349593Y-96987850D03*
D14*
X213429593Y-96987850D03*
D16*
X204539593Y-94447850D03*
D17*
X205194449Y-93718020D03*
D18*
X210869351Y-92198023D03*
D16*
X210889593Y-91907850D03*
%TD*%
D14*
%TO.C,SW11*%
X127070348Y-87462850D03*
D15*
X132150348Y-87462850D03*
D14*
X137230348Y-87462850D03*
D16*
X128340348Y-84922850D03*
D17*
X128995204Y-84193020D03*
D18*
X134670106Y-82673023D03*
D16*
X134690348Y-82382850D03*
%TD*%
D21*
%TO.C,H3*%
X198824600Y-106512900D03*
%TD*%
D14*
%TO.C,SW8*%
X184219598Y-96987850D03*
D15*
X189299598Y-96987850D03*
D14*
X194379598Y-96987850D03*
D16*
X185489598Y-94447850D03*
D17*
X186144454Y-93718020D03*
D18*
X191819356Y-92198023D03*
D16*
X191839598Y-91907850D03*
%TD*%
D14*
%TO.C,SW4*%
X146119648Y-63650350D03*
D15*
X151199648Y-63650350D03*
D14*
X156279648Y-63650350D03*
D16*
X147389648Y-61110350D03*
D17*
X148044504Y-60380520D03*
D18*
X153719406Y-58860523D03*
D16*
X153739648Y-58570350D03*
%TD*%
D14*
%TO.C,SW10*%
X146119648Y-82700350D03*
D15*
X151199648Y-82700350D03*
D14*
X156279648Y-82700350D03*
D16*
X147389648Y-80160350D03*
D17*
X148044504Y-79430520D03*
D18*
X153719406Y-77910523D03*
D16*
X153739648Y-77620350D03*
%TD*%
D33*
%TO.C,U1*%
X85449650Y-66356800D03*
X85449650Y-68896800D03*
D34*
X85449650Y-71436800D03*
X85449650Y-73976800D03*
D33*
X85449650Y-76516800D03*
X85449650Y-79056800D03*
X85449650Y-81596800D03*
X85449650Y-84136800D03*
X85449650Y-86676800D03*
X85449650Y-89216800D03*
X85449650Y-91756800D03*
X85449650Y-94296800D03*
D35*
X100689650Y-65086800D03*
D34*
X100689650Y-68896800D03*
D33*
X100689650Y-71436800D03*
X100689650Y-73976800D03*
X100689650Y-76516800D03*
X100689650Y-79056800D03*
X100689650Y-81596800D03*
X100689650Y-84136800D03*
X100689650Y-86676800D03*
X100689650Y-89216800D03*
X100689650Y-91756800D03*
X100689650Y-94296800D03*
X87989650Y-89216800D03*
X90529650Y-89216800D03*
X93069650Y-89216800D03*
D34*
X85449650Y-63816800D03*
D33*
X100689650Y-63816800D03*
%TD*%
D10*
%TO.C,D13*%
X198949595Y-119837950D03*
D11*
X198949595Y-112217950D03*
%TD*%
D10*
%TO.C,D14*%
X179899600Y-117837950D03*
D11*
X179899600Y-110217950D03*
%TD*%
D10*
%TO.C,D9*%
X160849650Y-91262850D03*
D11*
X160849650Y-83642850D03*
%TD*%
D14*
%TO.C,SW17*%
X127070348Y-106512850D03*
D15*
X132150348Y-106512850D03*
D14*
X137230348Y-106512850D03*
D16*
X128340348Y-103972850D03*
D17*
X128995204Y-103243020D03*
D18*
X134670106Y-101723023D03*
D16*
X134690348Y-101432850D03*
%TD*%
D10*
%TO.C,D4*%
X141799650Y-72212850D03*
D11*
X141799650Y-64592850D03*
%TD*%
D36*
%TO.C,SW25*%
X81425316Y-97676800D03*
X81425316Y-100676800D03*
D37*
X83425316Y-101426800D03*
X83425316Y-98426800D03*
X83425316Y-96926800D03*
D38*
X82575316Y-95476800D03*
X80275316Y-95476800D03*
X82575316Y-102876800D03*
X80275316Y-102876800D03*
%TD*%
D33*
%TO.C,SW24*%
X82499650Y-105676800D03*
X82499650Y-110676800D03*
D39*
X84999650Y-111676800D03*
X84999650Y-104676800D03*
%TD*%
M02*
