M48
; DRILL file {KiCad 7.0.11} date Tuesday, June 23, 2026 at 10:25:42 PM
; FORMAT={-:-/ absolute / metric / decimal}
; #@! TF.CreationDate,2026-06-23T22:25:42+02:00
; #@! TF.GenerationSoftware,Kicad,Pcbnew,7.0.11
; #@! TF.FileFunction,MixedPlating,1,2
FMAT,2
METRIC
; #@! TA.AperFunction,Plated,PTH,ViaDrill
T1C0.400
; #@! TA.AperFunction,Plated,PTH,ComponentDrill
T2C0.750
; #@! TA.AperFunction,Plated,PTH,ComponentDrill
T3C0.800
; #@! TA.AperFunction,Plated,PTH,ComponentDrill
T4C1.000
; #@! TA.AperFunction,Plated,PTH,ComponentDrill
T5C1.300
; #@! TA.AperFunction,Plated,PTH,ComponentDrill
T6C1.500
; #@! TA.AperFunction,Plated,PTH,ComponentDrill
T7C1.524
; #@! TA.AperFunction,NonPlated,NPTH,ComponentDrill
T8C0.850
; #@! TA.AperFunction,NonPlated,NPTH,ComponentDrill
T9C1.750
; #@! TA.AperFunction,NonPlated,NPTH,ComponentDrill
T10C3.988
; #@! TA.AperFunction,NonPlated,NPTH,ComponentDrill
T11C4.300
%
G90
G05
T1
X88.458Y-93.045
X89.165Y-87.635
X89.433Y-93.267
X90.5Y-94.4
X91.5Y-95.6
X92.43Y-91.1
X93.2Y-92.8
X95.7Y-74.477
X100.0Y-97.7
X112.9Y-100.1
X114.2Y-96.4
X114.2Y-97.7
X114.9Y-100.279
X114.9Y-95.2
X133.2Y-95.7
X151.2Y-92.3
X169.4Y-93.3
T2
X88.475Y-103.5
X88.475Y-105.5
T3
X98.4Y-111.827
X102.21Y-118.426
X103.7Y-66.974
X103.7Y-74.594
X103.7Y-86.024
X103.7Y-93.644
X103.7Y-105.074
X103.7Y-112.694
X108.39Y-128.628
X112.2Y-135.227
X122.75Y-64.593
X122.75Y-72.213
X122.75Y-85.643
X122.75Y-93.263
X122.75Y-102.693
X122.75Y-110.313
X128.964Y-121.997
X130.936Y-129.357
X141.8Y-64.593
X141.8Y-72.213
X141.8Y-78.88
X141.8Y-86.5
X141.8Y-97.93
X141.8Y-105.55
X150.775Y-121.743
X150.775Y-129.363
X160.85Y-61.593
X160.85Y-69.213
X160.85Y-83.643
X160.85Y-91.263
X160.85Y-102.693
X160.85Y-110.313
X169.9Y-121.743
X169.9Y-129.363
X179.9Y-74.118
X179.9Y-81.738
X179.9Y-93.168
X179.9Y-100.788
X179.9Y-110.218
X179.9Y-117.838
X198.95Y-74.118
X198.95Y-81.738
X198.95Y-93.168
X198.95Y-100.788
X198.95Y-112.218
X198.95Y-119.838
T4
X82.5Y-105.677
X82.5Y-110.677
X85.45Y-63.817
X85.45Y-66.357
X85.45Y-68.897
X85.45Y-71.437
X85.45Y-73.977
X85.45Y-76.517
X85.45Y-79.057
X85.45Y-81.597
X85.45Y-84.137
X85.45Y-86.677
X85.45Y-89.217
X85.45Y-91.757
X85.45Y-94.297
X86.469Y-114.476
X87.99Y-89.217
X87.99Y-98.177
X88.634Y-113.226
X90.53Y-89.217
X90.53Y-98.177
X90.799Y-111.976
X93.07Y-89.217
X93.07Y-98.177
X93.719Y-127.033
X95.61Y-98.177
X98.049Y-124.533
X98.15Y-98.177
X100.69Y-63.817
X100.69Y-66.357
X100.69Y-68.897
X100.69Y-71.437
X100.69Y-73.977
X100.69Y-76.517
X100.69Y-79.057
X100.69Y-81.597
X100.69Y-84.137
X100.69Y-86.677
X100.69Y-89.217
X100.69Y-91.757
X100.69Y-94.297
T5
X85.0Y-104.677
X85.0Y-111.677
T7
X97.339Y-135.923
X97.744Y-134.004
X101.569Y-130.548
X101.824Y-131.071
X109.29Y-68.254
X109.29Y-87.304
X109.29Y-106.354
X110.6Y-66.794
X110.6Y-85.844
X110.6Y-104.894
X115.6Y-66.294
X115.6Y-85.344
X115.6Y-104.394
X115.64Y-65.714
X115.64Y-84.764
X115.64Y-103.814
X116.753Y-126.805
X117.64Y-125.055
X122.229Y-122.708
X122.34Y-123.278
X128.34Y-65.873
X128.34Y-84.923
X128.34Y-103.973
X129.65Y-64.413
X129.65Y-83.463
X129.65Y-102.513
X134.65Y-63.913
X134.65Y-82.963
X134.65Y-102.013
X134.69Y-63.333
X134.69Y-82.383
X134.69Y-101.433
X137.865Y-123.023
X139.175Y-121.563
X144.175Y-121.063
X144.215Y-120.483
X147.39Y-61.11
X147.39Y-80.16
X147.39Y-99.21
X148.7Y-59.65
X148.7Y-78.7
X148.7Y-97.75
X153.7Y-59.15
X153.7Y-78.2
X153.7Y-97.25
X153.74Y-58.57
X153.74Y-77.62
X153.74Y-96.67
X156.915Y-123.023
X158.225Y-121.563
X163.225Y-121.063
X163.265Y-120.483
X166.44Y-65.873
X166.44Y-84.923
X166.44Y-103.973
X167.75Y-64.413
X167.75Y-83.463
X167.75Y-102.513
X172.75Y-63.913
X172.75Y-82.963
X172.75Y-102.013
X172.79Y-63.333
X172.79Y-82.383
X172.79Y-101.433
X185.49Y-75.398
X185.49Y-94.448
X185.49Y-113.498
X186.8Y-73.938
X186.8Y-92.988
X186.8Y-112.038
X191.8Y-73.438
X191.8Y-92.488
X191.8Y-111.538
X191.84Y-72.858
X191.84Y-91.908
X191.84Y-110.958
X204.54Y-75.398
X204.54Y-94.448
X204.54Y-113.498
X205.85Y-73.938
X205.85Y-92.988
X205.85Y-112.038
X210.85Y-73.438
X210.85Y-92.488
X210.85Y-111.538
X210.89Y-72.858
X210.89Y-91.908
X210.89Y-110.958
T8
X81.425Y-97.677
X81.425Y-100.677
T9
X97.51Y-138.758
X106.308Y-133.678
X108.02Y-70.794
X108.02Y-89.844
X108.02Y-108.894
X116.183Y-129.587
X118.18Y-70.794
X118.18Y-89.844
X118.18Y-108.894
X125.997Y-126.957
X127.07Y-68.413
X127.07Y-87.463
X127.07Y-106.513
X136.595Y-125.563
X137.23Y-68.413
X137.23Y-87.463
X137.23Y-106.513
X146.12Y-63.65
X146.12Y-82.7
X146.12Y-101.75
X146.755Y-125.563
X155.645Y-125.563
X156.28Y-63.65
X156.28Y-82.7
X156.28Y-101.75
X165.17Y-68.413
X165.17Y-87.463
X165.17Y-106.513
X165.805Y-125.563
X175.33Y-68.413
X175.33Y-87.463
X175.33Y-106.513
X184.22Y-77.938
X184.22Y-96.988
X184.22Y-116.038
X194.38Y-77.938
X194.38Y-96.988
X194.38Y-116.038
X203.27Y-77.938
X203.27Y-96.988
X203.27Y-116.038
X213.43Y-77.938
X213.43Y-96.988
X213.43Y-116.038
T10
X101.909Y-136.218
X113.1Y-70.794
X113.1Y-89.844
X113.1Y-108.894
X121.09Y-128.272
X132.15Y-68.413
X132.15Y-87.463
X132.15Y-106.513
X141.675Y-125.563
X151.2Y-63.65
X151.2Y-82.7
X151.2Y-101.75
X160.725Y-125.563
X170.25Y-68.413
X170.25Y-87.463
X170.25Y-106.513
X189.3Y-77.938
X189.3Y-96.988
X189.3Y-116.038
X208.35Y-77.938
X208.35Y-96.988
X208.35Y-116.038
T11
X107.16Y-122.832
X122.625Y-79.129
X175.758Y-122.438
X198.825Y-87.463
X198.825Y-106.513
T6
G00X87.209Y-121.958
M15
G01X87.859Y-123.084
M16
G05
G00X96.909Y-116.358
M15
G01X97.559Y-117.484
M16
G05
M30
