M48
; DRILL file {KiCad 7.0.11} date Tuesday, June 23, 2026 at 10:24:28 PM
; FORMAT={-:-/ absolute / metric / decimal}
; #@! TF.CreationDate,2026-06-23T22:24:28+02:00
; #@! TF.GenerationSoftware,Kicad,Pcbnew,7.0.11
; #@! TF.FileFunction,MixedPlating,1,2
FMAT,2
METRIC
; #@! TA.AperFunction,Plated,PTH,ViaDrill
T1C0.400
; #@! TA.AperFunction,Plated,PTH,ComponentDrill
T2C0.750
; #@! TA.AperFunction,Plated,PTH,ComponentDrill
T3C0.800
; #@! TA.AperFunction,Plated,PTH,ComponentDrill
T4C1.000
; #@! TA.AperFunction,Plated,PTH,ComponentDrill
T5C1.300
; #@! TA.AperFunction,Plated,PTH,ComponentDrill
T6C1.500
; #@! TA.AperFunction,Plated,PTH,ComponentDrill
T7C1.524
; #@! TA.AperFunction,NonPlated,NPTH,ComponentDrill
T8C0.850
; #@! TA.AperFunction,NonPlated,NPTH,ComponentDrill
T9C1.750
; #@! TA.AperFunction,NonPlated,NPTH,ComponentDrill
T10C3.988
; #@! TA.AperFunction,NonPlated,NPTH,ComponentDrill
T11C4.300
%
G90
G05
T1
X137.031Y-127.231
X162.2Y-127.1
X171.9Y-127.6
X184.4Y-125.625
X193.332Y-125.068
X195.07Y-125.1
X195.987Y-125.587
X196.859Y-126.076
X197.919Y-126.475
X198.8Y-127.175
X204.96Y-96.5
X205.7Y-101.0
X207.6Y-101.1
X209.8Y-104.0
X210.1Y-96.5
X214.9Y-106.1
X215.8Y-110.7
X216.667Y-105.167
X217.2Y-107.6
X220.8Y-107.0
T2
X215.25Y-113.5
X215.25Y-115.5
T3
X104.75Y-84.191
X104.75Y-91.811
X104.75Y-103.241
X104.75Y-110.861
X104.75Y-122.291
X104.75Y-129.911
X123.8Y-84.191
X123.8Y-91.811
X123.8Y-103.241
X123.8Y-110.861
X123.8Y-120.291
X123.8Y-127.911
X133.8Y-131.816
X133.8Y-139.436
X142.85Y-74.666
X142.85Y-82.286
X142.85Y-93.716
X142.85Y-101.336
X142.85Y-112.766
X142.85Y-120.386
X152.925Y-131.816
X152.925Y-139.436
X161.9Y-70.904
X161.9Y-78.524
X161.9Y-88.954
X161.9Y-96.574
X161.9Y-108.004
X161.9Y-115.624
X172.764Y-139.43
X174.736Y-132.07
X180.949Y-74.666
X180.949Y-82.286
X180.949Y-95.716
X180.949Y-103.336
X180.949Y-112.766
X180.949Y-120.386
X191.5Y-145.3
X195.31Y-138.701
X200.0Y-77.047
X200.0Y-84.667
X200.0Y-96.097
X200.0Y-103.717
X200.0Y-115.147
X200.0Y-122.767
X201.49Y-128.499
X205.3Y-121.9
T4
X203.01Y-73.89
X203.01Y-76.43
X203.01Y-78.97
X203.01Y-81.51
X203.01Y-84.05
X203.01Y-86.59
X203.01Y-89.13
X203.01Y-91.67
X203.01Y-94.21
X203.01Y-96.75
X203.01Y-99.29
X203.01Y-101.83
X203.01Y-104.37
X205.55Y-99.29
X205.55Y-108.25
X205.651Y-134.606
X208.09Y-99.29
X208.09Y-108.25
X209.981Y-137.106
X210.63Y-99.29
X210.63Y-108.25
X212.901Y-122.049
X213.17Y-108.25
X215.066Y-123.299
X215.71Y-108.25
X217.231Y-124.549
X218.25Y-73.89
X218.25Y-76.43
X218.25Y-78.97
X218.25Y-81.51
X218.25Y-84.05
X218.25Y-86.59
X218.25Y-89.13
X218.25Y-91.67
X218.25Y-94.21
X218.25Y-96.75
X218.25Y-99.29
X218.25Y-101.83
X218.25Y-104.37
X221.2Y-115.75
X221.2Y-120.75
T5
X218.7Y-114.75
X218.7Y-121.75
T7
X91.54Y-85.471
X91.54Y-104.521
X91.54Y-123.571
X92.85Y-84.011
X92.85Y-103.061
X92.85Y-122.111
X97.85Y-83.511
X97.85Y-102.561
X97.85Y-121.611
X97.89Y-82.931
X97.89Y-101.981
X97.89Y-121.031
X110.59Y-85.471
X110.59Y-104.521
X110.59Y-123.571
X111.9Y-84.011
X111.9Y-103.061
X111.9Y-122.111
X116.9Y-83.511
X116.9Y-102.561
X116.9Y-121.611
X116.94Y-82.931
X116.94Y-101.981
X116.94Y-121.031
X129.64Y-75.946
X129.64Y-94.996
X129.64Y-114.046
X130.95Y-74.486
X130.95Y-93.536
X130.95Y-112.586
X135.95Y-73.986
X135.95Y-93.036
X135.95Y-112.086
X135.99Y-73.406
X135.99Y-92.456
X135.99Y-111.506
X139.165Y-133.096
X140.475Y-131.636
X145.475Y-131.136
X145.515Y-130.556
X148.69Y-71.184
X148.69Y-90.234
X148.69Y-109.284
X150.0Y-69.724
X150.0Y-88.774
X150.0Y-107.824
X155.0Y-69.224
X155.0Y-88.274
X155.0Y-107.324
X155.04Y-68.644
X155.04Y-87.694
X155.04Y-106.744
X158.215Y-133.096
X159.525Y-131.636
X164.525Y-131.136
X164.565Y-130.556
X167.739Y-75.946
X167.739Y-94.996
X167.739Y-114.046
X169.049Y-74.486
X169.049Y-93.536
X169.049Y-112.586
X174.049Y-73.986
X174.049Y-93.036
X174.049Y-112.086
X174.089Y-73.406
X174.089Y-92.456
X174.089Y-111.506
X179.587Y-134.906
X181.23Y-133.835
X186.189Y-134.646
X186.378Y-134.096
X186.79Y-78.327
X186.79Y-97.377
X186.79Y-116.427
X188.1Y-76.867
X188.1Y-95.917
X188.1Y-114.967
X193.1Y-76.367
X193.1Y-95.417
X193.1Y-114.467
X193.14Y-75.787
X193.14Y-94.837
X193.14Y-113.887
X199.761Y-142.186
X201.626Y-141.577
X206.206Y-143.644
X206.53Y-143.162
T8
X222.25Y-107.75
X222.25Y-110.75
T9
X90.27Y-88.011
X90.27Y-107.061
X90.27Y-126.111
X100.43Y-88.011
X100.43Y-107.061
X100.43Y-126.111
X109.32Y-88.011
X109.32Y-107.061
X109.32Y-126.111
X119.48Y-88.011
X119.48Y-107.061
X119.48Y-126.111
X128.37Y-78.486
X128.37Y-97.536
X128.37Y-116.586
X137.895Y-135.636
X138.53Y-78.486
X138.53Y-97.536
X138.53Y-116.586
X147.42Y-73.724
X147.42Y-92.774
X147.42Y-111.824
X148.055Y-135.636
X156.945Y-135.636
X157.58Y-73.724
X157.58Y-92.774
X157.58Y-111.824
X166.469Y-78.486
X166.469Y-97.536
X166.469Y-116.586
X167.105Y-135.636
X176.629Y-78.486
X176.629Y-97.536
X176.629Y-116.586
X177.703Y-137.031
X185.52Y-80.867
X185.52Y-99.917
X185.52Y-118.967
X187.516Y-139.66
X195.68Y-80.867
X195.68Y-99.917
X195.68Y-118.967
X197.391Y-143.751
X206.19Y-148.831
T10
X95.35Y-88.011
X95.35Y-107.061
X95.35Y-126.111
X114.4Y-88.011
X114.4Y-107.061
X114.4Y-126.111
X133.45Y-78.486
X133.45Y-97.536
X133.45Y-116.586
X142.975Y-135.636
X152.5Y-73.724
X152.5Y-92.774
X152.5Y-111.824
X162.025Y-135.636
X171.549Y-78.486
X171.549Y-97.536
X171.549Y-116.586
X182.609Y-138.345
X190.6Y-80.867
X190.6Y-99.917
X190.6Y-118.967
X201.791Y-146.291
T11
X104.875Y-97.536
X104.875Y-116.586
X127.942Y-132.511
X181.075Y-89.202
X196.54Y-132.905
T6
G00X206.791Y-126.431
M15
G01X206.141Y-127.557
M16
G05
G00X216.49Y-132.031
M15
G01X215.84Y-133.157
M16
G05
M30
