%TF.GenerationSoftware,KiCad,Pcbnew,7.0.11*%
%TF.CreationDate,2026-06-23T22:24:30+02:00*%
%TF.ProjectId,dual-blades,6475616c-2d62-46c6-9164-65732e6b6963,rev?*%
%TF.SameCoordinates,Original*%
%TF.FileFunction,Legend,Top*%
%TF.FilePolarity,Positive*%
%FSLAX46Y46*%
G04 Gerber Fmt 4.6, Leading zero omitted, Abs format (unit mm)*
G04 Created by KiCad (PCBNEW 7.0.11) date 2026-06-23 22:24:30*
%MOMM*%
%LPD*%
G01*
G04 APERTURE LIST*
%ADD10C,0.150000*%
%ADD11C,0.120000*%
G04 APERTURE END LIST*
D10*
X209368095Y-73069819D02*
X209368095Y-73879342D01*
X209368095Y-73879342D02*
X209415714Y-73974580D01*
X209415714Y-73974580D02*
X209463333Y-74022200D01*
X209463333Y-74022200D02*
X209558571Y-74069819D01*
X209558571Y-74069819D02*
X209749047Y-74069819D01*
X209749047Y-74069819D02*
X209844285Y-74022200D01*
X209844285Y-74022200D02*
X209891904Y-73974580D01*
X209891904Y-73974580D02*
X209939523Y-73879342D01*
X209939523Y-73879342D02*
X209939523Y-73069819D01*
X210368095Y-74022200D02*
X210510952Y-74069819D01*
X210510952Y-74069819D02*
X210749047Y-74069819D01*
X210749047Y-74069819D02*
X210844285Y-74022200D01*
X210844285Y-74022200D02*
X210891904Y-73974580D01*
X210891904Y-73974580D02*
X210939523Y-73879342D01*
X210939523Y-73879342D02*
X210939523Y-73784104D01*
X210939523Y-73784104D02*
X210891904Y-73688866D01*
X210891904Y-73688866D02*
X210844285Y-73641247D01*
X210844285Y-73641247D02*
X210749047Y-73593628D01*
X210749047Y-73593628D02*
X210558571Y-73546009D01*
X210558571Y-73546009D02*
X210463333Y-73498390D01*
X210463333Y-73498390D02*
X210415714Y-73450771D01*
X210415714Y-73450771D02*
X210368095Y-73355533D01*
X210368095Y-73355533D02*
X210368095Y-73260295D01*
X210368095Y-73260295D02*
X210415714Y-73165057D01*
X210415714Y-73165057D02*
X210463333Y-73117438D01*
X210463333Y-73117438D02*
X210558571Y-73069819D01*
X210558571Y-73069819D02*
X210796666Y-73069819D01*
X210796666Y-73069819D02*
X210939523Y-73117438D01*
X211701428Y-73546009D02*
X211844285Y-73593628D01*
X211844285Y-73593628D02*
X211891904Y-73641247D01*
X211891904Y-73641247D02*
X211939523Y-73736485D01*
X211939523Y-73736485D02*
X211939523Y-73879342D01*
X211939523Y-73879342D02*
X211891904Y-73974580D01*
X211891904Y-73974580D02*
X211844285Y-74022200D01*
X211844285Y-74022200D02*
X211749047Y-74069819D01*
X211749047Y-74069819D02*
X211368095Y-74069819D01*
X211368095Y-74069819D02*
X211368095Y-73069819D01*
X211368095Y-73069819D02*
X211701428Y-73069819D01*
X211701428Y-73069819D02*
X211796666Y-73117438D01*
X211796666Y-73117438D02*
X211844285Y-73165057D01*
X211844285Y-73165057D02*
X211891904Y-73260295D01*
X211891904Y-73260295D02*
X211891904Y-73355533D01*
X211891904Y-73355533D02*
X211844285Y-73450771D01*
X211844285Y-73450771D02*
X211796666Y-73498390D01*
X211796666Y-73498390D02*
X211701428Y-73546009D01*
X211701428Y-73546009D02*
X211368095Y-73546009D01*
X205200714Y-76987319D02*
X204629286Y-76987319D01*
X204915000Y-76987319D02*
X204915000Y-75987319D01*
X204915000Y-75987319D02*
X204819762Y-76130176D01*
X204819762Y-76130176D02*
X204724524Y-76225414D01*
X204724524Y-76225414D02*
X204629286Y-76273033D01*
X208010952Y-74803152D02*
X208391904Y-74803152D01*
X208153809Y-74469819D02*
X208153809Y-75326961D01*
X208153809Y-75326961D02*
X208201428Y-75422200D01*
X208201428Y-75422200D02*
X208296666Y-75469819D01*
X208296666Y-75469819D02*
X208391904Y-75469819D01*
X208868095Y-75469819D02*
X208772857Y-75422200D01*
X208772857Y-75422200D02*
X208725238Y-75374580D01*
X208725238Y-75374580D02*
X208677619Y-75279342D01*
X208677619Y-75279342D02*
X208677619Y-74993628D01*
X208677619Y-74993628D02*
X208725238Y-74898390D01*
X208725238Y-74898390D02*
X208772857Y-74850771D01*
X208772857Y-74850771D02*
X208868095Y-74803152D01*
X208868095Y-74803152D02*
X209010952Y-74803152D01*
X209010952Y-74803152D02*
X209106190Y-74850771D01*
X209106190Y-74850771D02*
X209153809Y-74898390D01*
X209153809Y-74898390D02*
X209201428Y-74993628D01*
X209201428Y-74993628D02*
X209201428Y-75279342D01*
X209201428Y-75279342D02*
X209153809Y-75374580D01*
X209153809Y-75374580D02*
X209106190Y-75422200D01*
X209106190Y-75422200D02*
X209010952Y-75469819D01*
X209010952Y-75469819D02*
X208868095Y-75469819D01*
X209630000Y-74803152D02*
X209630000Y-75803152D01*
X209630000Y-74850771D02*
X209725238Y-74803152D01*
X209725238Y-74803152D02*
X209915714Y-74803152D01*
X209915714Y-74803152D02*
X210010952Y-74850771D01*
X210010952Y-74850771D02*
X210058571Y-74898390D01*
X210058571Y-74898390D02*
X210106190Y-74993628D01*
X210106190Y-74993628D02*
X210106190Y-75279342D01*
X210106190Y-75279342D02*
X210058571Y-75374580D01*
X210058571Y-75374580D02*
X210010952Y-75422200D01*
X210010952Y-75422200D02*
X209915714Y-75469819D01*
X209915714Y-75469819D02*
X209725238Y-75469819D01*
X209725238Y-75469819D02*
X209630000Y-75422200D01*
X210487143Y-75422200D02*
X210582381Y-75469819D01*
X210582381Y-75469819D02*
X210772857Y-75469819D01*
X210772857Y-75469819D02*
X210868095Y-75422200D01*
X210868095Y-75422200D02*
X210915714Y-75326961D01*
X210915714Y-75326961D02*
X210915714Y-75279342D01*
X210915714Y-75279342D02*
X210868095Y-75184104D01*
X210868095Y-75184104D02*
X210772857Y-75136485D01*
X210772857Y-75136485D02*
X210630000Y-75136485D01*
X210630000Y-75136485D02*
X210534762Y-75088866D01*
X210534762Y-75088866D02*
X210487143Y-74993628D01*
X210487143Y-74993628D02*
X210487143Y-74946009D01*
X210487143Y-74946009D02*
X210534762Y-74850771D01*
X210534762Y-74850771D02*
X210630000Y-74803152D01*
X210630000Y-74803152D02*
X210772857Y-74803152D01*
X210772857Y-74803152D02*
X210868095Y-74850771D01*
X211344286Y-75469819D02*
X211344286Y-74803152D01*
X211344286Y-74469819D02*
X211296667Y-74517438D01*
X211296667Y-74517438D02*
X211344286Y-74565057D01*
X211344286Y-74565057D02*
X211391905Y-74517438D01*
X211391905Y-74517438D02*
X211344286Y-74469819D01*
X211344286Y-74469819D02*
X211344286Y-74565057D01*
X212249047Y-75469819D02*
X212249047Y-74469819D01*
X212249047Y-75422200D02*
X212153809Y-75469819D01*
X212153809Y-75469819D02*
X211963333Y-75469819D01*
X211963333Y-75469819D02*
X211868095Y-75422200D01*
X211868095Y-75422200D02*
X211820476Y-75374580D01*
X211820476Y-75374580D02*
X211772857Y-75279342D01*
X211772857Y-75279342D02*
X211772857Y-74993628D01*
X211772857Y-74993628D02*
X211820476Y-74898390D01*
X211820476Y-74898390D02*
X211868095Y-74850771D01*
X211868095Y-74850771D02*
X211963333Y-74803152D01*
X211963333Y-74803152D02*
X212153809Y-74803152D01*
X212153809Y-74803152D02*
X212249047Y-74850771D01*
X213106190Y-75422200D02*
X213010952Y-75469819D01*
X213010952Y-75469819D02*
X212820476Y-75469819D01*
X212820476Y-75469819D02*
X212725238Y-75422200D01*
X212725238Y-75422200D02*
X212677619Y-75326961D01*
X212677619Y-75326961D02*
X212677619Y-74946009D01*
X212677619Y-74946009D02*
X212725238Y-74850771D01*
X212725238Y-74850771D02*
X212820476Y-74803152D01*
X212820476Y-74803152D02*
X213010952Y-74803152D01*
X213010952Y-74803152D02*
X213106190Y-74850771D01*
X213106190Y-74850771D02*
X213153809Y-74946009D01*
X213153809Y-74946009D02*
X213153809Y-75041247D01*
X213153809Y-75041247D02*
X212677619Y-75136485D01*
D11*
%TO.C,D19*%
X133800000Y-138396150D02*
X133800000Y-137746150D01*
X132680000Y-137746150D02*
X134920000Y-137746150D01*
X134920000Y-137746150D02*
X134920000Y-133506150D01*
X132680000Y-137146150D02*
X134920000Y-137146150D01*
X132680000Y-137026150D02*
X134920000Y-137026150D01*
X132680000Y-136906150D02*
X134920000Y-136906150D01*
X132680000Y-133506150D02*
X132680000Y-137746150D01*
X134920000Y-133506150D02*
X132680000Y-133506150D01*
X133800000Y-132856150D02*
X133800000Y-133506150D01*
%TO.C,D21*%
X173033072Y-138425615D02*
X173201304Y-137797763D01*
X172119467Y-137507886D02*
X174283141Y-138087641D01*
X174283141Y-138087641D02*
X175380534Y-133992115D01*
X172274759Y-136928331D02*
X174438433Y-137508085D01*
X172305817Y-136812419D02*
X174469491Y-137392174D01*
X172336875Y-136696508D02*
X174500549Y-137276263D01*
X173216860Y-133412361D02*
X172119467Y-137507886D01*
X175380534Y-133992115D02*
X173216860Y-133412361D01*
X174466929Y-133074386D02*
X174298697Y-133702238D01*
%TO.C,D23*%
X202010000Y-127598448D02*
X202335000Y-127035531D01*
X201365052Y-126475531D02*
X203304948Y-127595531D01*
X203304948Y-127595531D02*
X205424948Y-123923583D01*
X201665052Y-125955916D02*
X203604948Y-127075916D01*
X201725052Y-125851993D02*
X203664948Y-126971993D01*
X201785052Y-125748070D02*
X203724948Y-126868070D01*
X203485052Y-122803583D02*
X201365052Y-126475531D01*
X205424948Y-123923583D02*
X203485052Y-122803583D01*
X204780000Y-122800667D02*
X204455000Y-123363583D01*
%TO.C,D16*%
X161900000Y-114583550D02*
X161900000Y-113933550D01*
X160780000Y-113933550D02*
X163020000Y-113933550D01*
X163020000Y-113933550D02*
X163020000Y-109693550D01*
X160780000Y-113333550D02*
X163020000Y-113333550D01*
X160780000Y-113213550D02*
X163020000Y-113213550D01*
X160780000Y-113093550D02*
X163020000Y-113093550D01*
X160780000Y-109693550D02*
X160780000Y-113933550D01*
X163020000Y-109693550D02*
X160780000Y-109693550D01*
X161900000Y-109043550D02*
X161900000Y-109693550D01*
%TO.C,D18*%
X200000100Y-121727400D02*
X200000100Y-121077400D01*
X198880100Y-121077400D02*
X201120100Y-121077400D01*
X201120100Y-121077400D02*
X201120100Y-116837400D01*
X198880100Y-120477400D02*
X201120100Y-120477400D01*
X198880100Y-120357400D02*
X201120100Y-120357400D01*
X198880100Y-120237400D02*
X201120100Y-120237400D01*
X198880100Y-116837400D02*
X198880100Y-121077400D01*
X201120100Y-116837400D02*
X198880100Y-116837400D01*
X200000100Y-116187400D02*
X200000100Y-116837400D01*
%TO.C,D15*%
X142850000Y-119346050D02*
X142850000Y-118696050D01*
X141730000Y-118696050D02*
X143970000Y-118696050D01*
X143970000Y-118696050D02*
X143970000Y-114456050D01*
X141730000Y-118096050D02*
X143970000Y-118096050D01*
X141730000Y-117976050D02*
X143970000Y-117976050D01*
X141730000Y-117856050D02*
X143970000Y-117856050D01*
X141730000Y-114456050D02*
X141730000Y-118696050D01*
X143970000Y-114456050D02*
X141730000Y-114456050D01*
X142850000Y-113806050D02*
X142850000Y-114456050D01*
%TO.C,J2*%
X216710000Y-111440000D02*
X208890000Y-111440000D01*
X215110000Y-111440000D02*
X215110000Y-112360000D01*
X208890000Y-111440000D02*
X208890000Y-117560000D01*
X212750000Y-112200000D02*
X211150000Y-112200000D01*
X211150000Y-112200000D02*
X211150000Y-113200000D01*
X216710000Y-112360000D02*
X216710000Y-111440000D01*
X215110000Y-112360000D02*
X216710000Y-112360000D01*
X215110000Y-112640000D02*
X215110000Y-112360000D01*
X215110000Y-112640000D02*
X216325000Y-112640000D01*
X211150000Y-112700000D02*
X208890000Y-112700000D01*
X212750000Y-113200000D02*
X212750000Y-112200000D01*
X211150000Y-113200000D02*
X212750000Y-113200000D01*
X211150000Y-113200000D02*
X208890000Y-113200000D01*
X213250000Y-114000000D02*
X213250000Y-115000000D01*
X208890000Y-114000000D02*
X213250000Y-114000000D01*
X213250000Y-115000000D02*
X208890000Y-115000000D01*
X212750000Y-115800000D02*
X212750000Y-116800000D01*
X211150000Y-115800000D02*
X212750000Y-115800000D01*
X216710000Y-116640000D02*
X215110000Y-116640000D01*
X215110000Y-116640000D02*
X215110000Y-116360000D01*
X212750000Y-116800000D02*
X211150000Y-116800000D01*
X211150000Y-116800000D02*
X211150000Y-115800000D01*
X216710000Y-117560000D02*
X216710000Y-116640000D01*
X215110000Y-117560000D02*
X215110000Y-116640000D01*
X208890000Y-117560000D02*
X216710000Y-117560000D01*
%TO.C,D10*%
X161900000Y-95533550D02*
X161900000Y-94883550D01*
X160780000Y-94883550D02*
X163020000Y-94883550D01*
X163020000Y-94883550D02*
X163020000Y-90643550D01*
X160780000Y-94283550D02*
X163020000Y-94283550D01*
X160780000Y-94163550D02*
X163020000Y-94163550D01*
X160780000Y-94043550D02*
X163020000Y-94043550D01*
X160780000Y-90643550D02*
X160780000Y-94883550D01*
X163020000Y-90643550D02*
X160780000Y-90643550D01*
X161900000Y-89993550D02*
X161900000Y-90643550D01*
%TO.C,D5*%
X180949300Y-81246050D02*
X180949300Y-80596050D01*
X179829300Y-80596050D02*
X182069300Y-80596050D01*
X182069300Y-80596050D02*
X182069300Y-76356050D01*
X179829300Y-79996050D02*
X182069300Y-79996050D01*
X179829300Y-79876050D02*
X182069300Y-79876050D01*
X179829300Y-79756050D02*
X182069300Y-79756050D01*
X179829300Y-76356050D02*
X179829300Y-80596050D01*
X182069300Y-76356050D02*
X179829300Y-76356050D01*
X180949300Y-75706050D02*
X180949300Y-76356050D01*
%TO.C,SW23*%
X213375200Y-138026655D02*
X211296739Y-136826655D01*
X215425200Y-134475951D02*
X213375200Y-138026655D01*
X217425200Y-131011849D02*
X219475200Y-127461145D01*
X219475200Y-127461145D02*
X209256100Y-121561145D01*
X209391483Y-135726655D02*
X207139817Y-134426655D01*
X214325458Y-125180760D02*
X213805842Y-124880760D01*
X214215650Y-124770953D02*
X214325458Y-125180760D01*
X213805842Y-124880760D02*
X214215650Y-124770953D01*
X205234561Y-133326655D02*
X203156100Y-132126655D01*
X203156100Y-132126655D02*
X205206100Y-128575951D01*
X207206100Y-125111849D02*
X209256100Y-121561145D01*
X213315650Y-129793900D02*
G75*
G03*
X209315650Y-129793900I-2000000J0D01*
G01*
X209315650Y-129793900D02*
G75*
G03*
X213315650Y-129793900I2000000J0D01*
G01*
%TO.C,J1*%
X217040000Y-106920000D02*
X217040000Y-108250000D01*
X215710000Y-106920000D02*
X217040000Y-106920000D01*
X214440000Y-106920000D02*
X204220000Y-106920000D01*
X214440000Y-106920000D02*
X214440000Y-109580000D01*
X204220000Y-106920000D02*
X204220000Y-109580000D01*
X214440000Y-109580000D02*
X204220000Y-109580000D01*
%TO.C,D3*%
X142850000Y-81246050D02*
X142850000Y-80596050D01*
X141730000Y-80596050D02*
X143970000Y-80596050D01*
X143970000Y-80596050D02*
X143970000Y-76356050D01*
X141730000Y-79996050D02*
X143970000Y-79996050D01*
X141730000Y-79876050D02*
X143970000Y-79876050D01*
X141730000Y-79756050D02*
X143970000Y-79756050D01*
X141730000Y-76356050D02*
X141730000Y-80596050D01*
X143970000Y-76356050D02*
X141730000Y-76356050D01*
X142850000Y-75706050D02*
X142850000Y-76356050D01*
%TO.C,D6*%
X200000100Y-83627350D02*
X200000100Y-82977350D01*
X198880100Y-82977350D02*
X201120100Y-82977350D01*
X201120100Y-82977350D02*
X201120100Y-78737350D01*
X198880100Y-82377350D02*
X201120100Y-82377350D01*
X198880100Y-82257350D02*
X201120100Y-82257350D01*
X198880100Y-82137350D02*
X201120100Y-82137350D01*
X198880100Y-78737350D02*
X198880100Y-82977350D01*
X201120100Y-78737350D02*
X198880100Y-78737350D01*
X200000100Y-78087350D02*
X200000100Y-78737350D01*
%TO.C,D17*%
X180949300Y-119346050D02*
X180949300Y-118696050D01*
X179829300Y-118696050D02*
X182069300Y-118696050D01*
X182069300Y-118696050D02*
X182069300Y-114456050D01*
X179829300Y-118096050D02*
X182069300Y-118096050D01*
X179829300Y-117976050D02*
X182069300Y-117976050D01*
X179829300Y-117856050D02*
X182069300Y-117856050D01*
X179829300Y-114456050D02*
X179829300Y-118696050D01*
X182069300Y-114456050D02*
X179829300Y-114456050D01*
X180949300Y-113806050D02*
X180949300Y-114456050D01*
%TO.C,D7*%
X104750055Y-109821050D02*
X104750055Y-109171050D01*
X103630055Y-109171050D02*
X105870055Y-109171050D01*
X105870055Y-109171050D02*
X105870055Y-104931050D01*
X103630055Y-108571050D02*
X105870055Y-108571050D01*
X103630055Y-108451050D02*
X105870055Y-108451050D01*
X103630055Y-108331050D02*
X105870055Y-108331050D01*
X103630055Y-104931050D02*
X103630055Y-109171050D01*
X105870055Y-104931050D02*
X103630055Y-104931050D01*
X104750055Y-104281050D02*
X104750055Y-104931050D01*
%TO.C,D2*%
X123800050Y-90771050D02*
X123800050Y-90121050D01*
X122680050Y-90121050D02*
X124920050Y-90121050D01*
X124920050Y-90121050D02*
X124920050Y-85881050D01*
X122680050Y-89521050D02*
X124920050Y-89521050D01*
X122680050Y-89401050D02*
X124920050Y-89401050D01*
X122680050Y-89281050D02*
X124920050Y-89281050D01*
X122680050Y-85881050D02*
X122680050Y-90121050D01*
X124920050Y-85881050D02*
X122680050Y-85881050D01*
X123800050Y-85231050D02*
X123800050Y-85881050D01*
%TO.C,D22*%
X192020000Y-144399334D02*
X192345000Y-143836417D01*
X191375052Y-143276417D02*
X193314948Y-144396417D01*
X193314948Y-144396417D02*
X195434948Y-140724469D01*
X191675052Y-142756802D02*
X193614948Y-143876802D01*
X191735052Y-142652879D02*
X193674948Y-143772879D01*
X191795052Y-142548956D02*
X193734948Y-143668956D01*
X193495052Y-139604469D02*
X191375052Y-143276417D01*
X195434948Y-140724469D02*
X193495052Y-139604469D01*
X194790000Y-139601553D02*
X194465000Y-140164469D01*
%TO.C,D1*%
X104750055Y-90771050D02*
X104750055Y-90121050D01*
X103630055Y-90121050D02*
X105870055Y-90121050D01*
X105870055Y-90121050D02*
X105870055Y-85881050D01*
X103630055Y-89521050D02*
X105870055Y-89521050D01*
X103630055Y-89401050D02*
X105870055Y-89401050D01*
X103630055Y-89281050D02*
X105870055Y-89281050D01*
X103630055Y-85881050D02*
X103630055Y-90121050D01*
X105870055Y-85881050D02*
X103630055Y-85881050D01*
X104750055Y-85231050D02*
X104750055Y-85881050D01*
%TO.C,D11*%
X180949300Y-102296050D02*
X180949300Y-101646050D01*
X179829300Y-101646050D02*
X182069300Y-101646050D01*
X182069300Y-101646050D02*
X182069300Y-97406050D01*
X179829300Y-101046050D02*
X182069300Y-101046050D01*
X179829300Y-100926050D02*
X182069300Y-100926050D01*
X179829300Y-100806050D02*
X182069300Y-100806050D01*
X179829300Y-97406050D02*
X179829300Y-101646050D01*
X182069300Y-97406050D02*
X179829300Y-97406050D01*
X180949300Y-96756050D02*
X180949300Y-97406050D01*
%TO.C,D8*%
X123800050Y-109821050D02*
X123800050Y-109171050D01*
X122680050Y-109171050D02*
X124920050Y-109171050D01*
X124920050Y-109171050D02*
X124920050Y-104931050D01*
X122680050Y-108571050D02*
X124920050Y-108571050D01*
X122680050Y-108451050D02*
X124920050Y-108451050D01*
X122680050Y-108331050D02*
X124920050Y-108331050D01*
X122680050Y-104931050D02*
X122680050Y-109171050D01*
X124920050Y-104931050D02*
X122680050Y-104931050D01*
X123800050Y-104281050D02*
X123800050Y-104931050D01*
%TO.C,D12*%
X200000100Y-102677350D02*
X200000100Y-102027350D01*
X198880100Y-102027350D02*
X201120100Y-102027350D01*
X201120100Y-102027350D02*
X201120100Y-97787350D01*
X198880100Y-101427350D02*
X201120100Y-101427350D01*
X198880100Y-101307350D02*
X201120100Y-101307350D01*
X198880100Y-101187350D02*
X201120100Y-101187350D01*
X198880100Y-97787350D02*
X198880100Y-102027350D01*
X201120100Y-97787350D02*
X198880100Y-97787350D01*
X200000100Y-97137350D02*
X200000100Y-97787350D01*
%TO.C,D20*%
X152925000Y-138396150D02*
X152925000Y-137746150D01*
X151805000Y-137746150D02*
X154045000Y-137746150D01*
X154045000Y-137746150D02*
X154045000Y-133506150D01*
X151805000Y-137146150D02*
X154045000Y-137146150D01*
X151805000Y-137026150D02*
X154045000Y-137026150D01*
X151805000Y-136906150D02*
X154045000Y-136906150D01*
X151805000Y-133506150D02*
X151805000Y-137746150D01*
X154045000Y-133506150D02*
X151805000Y-133506150D01*
X152925000Y-132856150D02*
X152925000Y-133506150D01*
D10*
%TO.C,U1*%
X207080000Y-76200000D02*
X207080000Y-72620000D01*
X214180000Y-76200000D02*
X207080000Y-76200000D01*
X214180000Y-76200000D02*
X214180000Y-72620000D01*
X201740000Y-72620000D02*
X219520000Y-72620000D01*
X219520000Y-72620000D02*
X219520000Y-105640000D01*
X219520000Y-105640000D02*
X201740000Y-105640000D01*
X201740000Y-105640000D02*
X201740000Y-72620000D01*
D11*
%TO.C,D13*%
X104750055Y-128871150D02*
X104750055Y-128221150D01*
X103630055Y-128221150D02*
X105870055Y-128221150D01*
X105870055Y-128221150D02*
X105870055Y-123981150D01*
X103630055Y-127621150D02*
X105870055Y-127621150D01*
X103630055Y-127501150D02*
X105870055Y-127501150D01*
X103630055Y-127381150D02*
X105870055Y-127381150D01*
X103630055Y-123981150D02*
X103630055Y-128221150D01*
X105870055Y-123981150D02*
X103630055Y-123981150D01*
X104750055Y-123331150D02*
X104750055Y-123981150D01*
%TO.C,D14*%
X123800050Y-126871150D02*
X123800050Y-126221150D01*
X122680050Y-126221150D02*
X124920050Y-126221150D01*
X124920050Y-126221150D02*
X124920050Y-121981150D01*
X122680050Y-125621150D02*
X124920050Y-125621150D01*
X122680050Y-125501150D02*
X124920050Y-125501150D01*
X122680050Y-125381150D02*
X124920050Y-125381150D01*
X122680050Y-121981150D02*
X122680050Y-126221150D01*
X124920050Y-121981150D02*
X122680050Y-121981150D01*
X123800050Y-121331150D02*
X123800050Y-121981150D01*
%TO.C,D9*%
X142850000Y-100296050D02*
X142850000Y-99646050D01*
X141730000Y-99646050D02*
X143970000Y-99646050D01*
X143970000Y-99646050D02*
X143970000Y-95406050D01*
X141730000Y-99046050D02*
X143970000Y-99046050D01*
X141730000Y-98926050D02*
X143970000Y-98926050D01*
X141730000Y-98806050D02*
X143970000Y-98806050D01*
X141730000Y-95406050D02*
X141730000Y-99646050D01*
X143970000Y-95406050D02*
X141730000Y-95406050D01*
X142850000Y-94756050D02*
X142850000Y-95406050D01*
%TO.C,D4*%
X161900000Y-77483550D02*
X161900000Y-76833550D01*
X160780000Y-76833550D02*
X163020000Y-76833550D01*
X163020000Y-76833550D02*
X163020000Y-72593550D01*
X160780000Y-76233550D02*
X163020000Y-76233550D01*
X160780000Y-76113550D02*
X163020000Y-76113550D01*
X160780000Y-75993550D02*
X163020000Y-75993550D01*
X160780000Y-72593550D02*
X160780000Y-76833550D01*
X163020000Y-72593550D02*
X160780000Y-72593550D01*
X161900000Y-71943550D02*
X161900000Y-72593550D01*
%TO.C,SW24*%
X220020000Y-122150000D02*
X223700000Y-122150000D01*
X219400000Y-116000000D02*
X219400000Y-120500000D01*
X223700000Y-114350000D02*
X223700000Y-122150000D01*
X220020000Y-114350000D02*
X223700000Y-114350000D01*
%TD*%
M02*
