%TF.GenerationSoftware,KiCad,Pcbnew,7.0.11*%
%TF.CreationDate,2026-06-23T22:24:30+02:00*%
%TF.ProjectId,dual-blades,6475616c-2d62-46c6-9164-65732e6b6963,rev?*%
%TF.SameCoordinates,Original*%
%TF.FileFunction,Soldermask,Bot*%
%TF.FilePolarity,Negative*%
%FSLAX46Y46*%
G04 Gerber Fmt 4.6, Leading zero omitted, Abs format (unit mm)*
G04 Created by KiCad (PCBNEW 7.0.11) date 2026-06-23 22:24:30*
%MOMM*%
%LPD*%
G01*
G04 APERTURE LIST*
G04 Aperture macros list*
%AMRoundRect*
0 Rectangle with rounded corners*
0 $1 Rounding radius*
0 $2 $3 $4 $5 $6 $7 $8 $9 X,Y pos of 4 corners*
0 Add a 4 corners polygon primitive as box body*
4,1,4,$2,$3,$4,$5,$6,$7,$8,$9,$2,$3,0*
0 Add four circle primitives for the rounded corners*
1,1,$1+$1,$2,$3*
1,1,$1+$1,$4,$5*
1,1,$1+$1,$6,$7*
1,1,$1+$1,$8,$9*
0 Add four rect primitives between the rounded corners*
20,1,$1+$1,$2,$3,$4,$5,0*
20,1,$1+$1,$4,$5,$6,$7,0*
20,1,$1+$1,$6,$7,$8,$9,0*
20,1,$1+$1,$8,$9,$2,$3,0*%
%AMHorizOval*
0 Thick line with rounded ends*
0 $1 width*
0 $2 $3 position (X,Y) of the first rounded end (center of the circle)*
0 $4 $5 position (X,Y) of the second rounded end (center of the circle)*
0 Add line between two ends*
20,1,$1,$2,$3,$4,$5,0*
0 Add two circle primitives to create the rounded ends*
1,1,$1,$2,$3*
1,1,$1,$4,$5*%
%AMRotRect*
0 Rectangle, with rotation*
0 The origin of the aperture is its center*
0 $1 length*
0 $2 width*
0 $3 Rotation angle, in degrees counterclockwise*
0 Add horizontal line*
21,1,$1,$2,0,0,$3*%
G04 Aperture macros list end*
%ADD10R,1.600000X1.600000*%
%ADD11O,1.600000X1.600000*%
%ADD12RotRect,1.600000X1.600000X75.000000*%
%ADD13HorizOval,1.600000X0.000000X0.000000X0.000000X0.000000X0*%
%ADD14C,1.750000*%
%ADD15C,3.987800*%
%ADD16C,2.300000*%
%ADD17HorizOval,2.300000X-0.655144X-0.730170X0.655144X0.730170X0*%
%ADD18HorizOval,2.300000X0.019758X0.289827X-0.019758X-0.289827X0*%
%ADD19RotRect,1.600000X1.600000X60.000000*%
%ADD20HorizOval,1.600000X0.000000X0.000000X0.000000X0.000000X0*%
%ADD21C,4.300000*%
%ADD22HorizOval,2.300000X-0.932456X-0.304774X0.932456X0.304774X0*%
%ADD23HorizOval,2.300000X0.162025X0.241119X-0.162025X-0.241119X0*%
%ADD24RoundRect,0.250000X-0.625000X0.350000X-0.625000X-0.350000X0.625000X-0.350000X0.625000X0.350000X0*%
%ADD25O,1.750000X1.200000*%
%ADD26C,2.000000*%
%ADD27RoundRect,0.500000X-0.183013X0.683013X-0.683013X-0.183013X0.183013X-0.683013X0.683013X0.183013X0*%
%ADD28RoundRect,0.550000X0.098686X1.270929X-1.051314X-0.720929X-0.098686X-1.270929X1.051314X0.720929X0*%
%ADD29R,1.700000X1.700000*%
%ADD30O,1.700000X1.700000*%
%ADD31HorizOval,2.300000X-0.821802X-0.535726X0.821802X0.535726X0*%
%ADD32HorizOval,2.300000X0.094098X0.274838X-0.094098X-0.274838X0*%
%ADD33C,1.800000*%
%ADD34RoundRect,0.450000X-0.450000X-0.450000X0.450000X-0.450000X0.450000X0.450000X-0.450000X0.450000X0*%
%ADD35O,1.800000X4.340000*%
%ADD36C,0.850000*%
%ADD37RoundRect,0.090000X-0.535000X0.210000X-0.535000X-0.210000X0.535000X-0.210000X0.535000X0.210000X0*%
%ADD38RoundRect,0.105000X0.245000X0.445000X-0.245000X0.445000X-0.245000X-0.445000X0.245000X-0.445000X0*%
%ADD39C,2.100000*%
G04 APERTURE END LIST*
D10*
%TO.C,D19*%
X133800000Y-139436150D03*
D11*
X133800000Y-131816150D03*
%TD*%
D12*
%TO.C,D21*%
X172763900Y-139430178D03*
D13*
X174736101Y-132069823D03*
%TD*%
D14*
%TO.C,SW18*%
X185520100Y-118967400D03*
D15*
X190600100Y-118967400D03*
D14*
X195680100Y-118967400D03*
D16*
X186790100Y-116427400D03*
D17*
X187444956Y-115697570D03*
D18*
X193119858Y-114177573D03*
D16*
X193140100Y-113887400D03*
%TD*%
D19*
%TO.C,D23*%
X201490000Y-128499114D03*
D20*
X205300000Y-121900000D03*
%TD*%
D21*
%TO.C,H1*%
X104875050Y-97536100D03*
%TD*%
D14*
%TO.C,SW15*%
X128370000Y-116586050D03*
D15*
X133450000Y-116586050D03*
D14*
X138530000Y-116586050D03*
D16*
X129640000Y-114046050D03*
D17*
X130294856Y-113316220D03*
D18*
X135969758Y-111796223D03*
D16*
X135990000Y-111506050D03*
%TD*%
D10*
%TO.C,D16*%
X161900000Y-115623550D03*
D11*
X161900000Y-108003550D03*
%TD*%
D10*
%TO.C,D18*%
X200000100Y-122767400D03*
D11*
X200000100Y-115147400D03*
%TD*%
D14*
%TO.C,SW22*%
X197391241Y-143751105D03*
D15*
X201790650Y-146291105D03*
D14*
X206190059Y-148831105D03*
D16*
X199761093Y-142186400D03*
D22*
X200693130Y-141881777D03*
D23*
X206367739Y-143402872D03*
D16*
X206530355Y-143161696D03*
%TD*%
D10*
%TO.C,D15*%
X142850000Y-120386050D03*
D11*
X142850000Y-112766050D03*
%TD*%
D14*
%TO.C,SW6*%
X185520100Y-80867350D03*
D15*
X190600100Y-80867350D03*
D14*
X195680100Y-80867350D03*
D16*
X186790100Y-78327350D03*
D17*
X187444956Y-77597520D03*
D18*
X193119858Y-76077523D03*
D16*
X193140100Y-75787350D03*
%TD*%
D24*
%TO.C,J2*%
X215250000Y-113500000D03*
D25*
X215250000Y-115500000D03*
%TD*%
D10*
%TO.C,D10*%
X161900000Y-96573550D03*
D11*
X161900000Y-88953550D03*
%TD*%
D14*
%TO.C,SW5*%
X166469300Y-78486050D03*
D15*
X171549300Y-78486050D03*
D14*
X176629300Y-78486050D03*
D16*
X167739300Y-75946050D03*
D17*
X168394156Y-75216220D03*
D18*
X174069058Y-73696223D03*
D16*
X174089300Y-73406050D03*
%TD*%
D10*
%TO.C,D5*%
X180949300Y-82286050D03*
D11*
X180949300Y-74666050D03*
%TD*%
D26*
%TO.C,SW23*%
X217230714Y-124548709D03*
X212900586Y-122048709D03*
D27*
X215065650Y-123298709D03*
D28*
X216165392Y-132593900D03*
X206465908Y-126993900D03*
D26*
X205650586Y-134606078D03*
X209980714Y-137106078D03*
%TD*%
D29*
%TO.C,J1*%
X215710000Y-108250000D03*
D30*
X213170000Y-108250000D03*
X210630000Y-108250000D03*
X208090000Y-108250000D03*
X205550000Y-108250000D03*
%TD*%
D10*
%TO.C,D3*%
X142850000Y-82286050D03*
D11*
X142850000Y-74666050D03*
%TD*%
D14*
%TO.C,SW20*%
X156945000Y-135636150D03*
D15*
X162025000Y-135636150D03*
D14*
X167105000Y-135636150D03*
D16*
X158215000Y-133096150D03*
D17*
X158869856Y-132366320D03*
D18*
X164544758Y-130846323D03*
D16*
X164565000Y-130556150D03*
%TD*%
D10*
%TO.C,D6*%
X200000100Y-84667350D03*
D11*
X200000100Y-77047350D03*
%TD*%
D10*
%TO.C,D17*%
X180949300Y-120386050D03*
D11*
X180949300Y-112766050D03*
%TD*%
D10*
%TO.C,D7*%
X104750055Y-110861050D03*
D11*
X104750055Y-103241050D03*
%TD*%
D14*
%TO.C,SW13*%
X90270055Y-126111150D03*
D15*
X95350055Y-126111150D03*
D14*
X100430055Y-126111150D03*
D16*
X91540055Y-123571150D03*
D17*
X92194911Y-122841320D03*
D18*
X97869813Y-121321323D03*
D16*
X97890055Y-121031150D03*
%TD*%
D21*
%TO.C,H5*%
X196539650Y-132905500D03*
%TD*%
D10*
%TO.C,D2*%
X123800050Y-91811050D03*
D11*
X123800050Y-84191050D03*
%TD*%
D14*
%TO.C,SW3*%
X128370000Y-78486050D03*
D15*
X133450000Y-78486050D03*
D14*
X138530000Y-78486050D03*
D16*
X129640000Y-75946050D03*
D17*
X130294856Y-75216220D03*
D18*
X135969758Y-73696223D03*
D16*
X135990000Y-73406050D03*
%TD*%
D14*
%TO.C,SW19*%
X137895000Y-135636150D03*
D15*
X142975000Y-135636150D03*
D14*
X148055000Y-135636150D03*
D16*
X139165000Y-133096150D03*
D17*
X139819856Y-132366320D03*
D18*
X145494758Y-130846323D03*
D16*
X145515000Y-130556150D03*
%TD*%
D19*
%TO.C,D22*%
X191500000Y-145300000D03*
D20*
X195310000Y-138700886D03*
%TD*%
D10*
%TO.C,D1*%
X104750055Y-91811050D03*
D11*
X104750055Y-84191050D03*
%TD*%
D14*
%TO.C,SW21*%
X177702547Y-137030549D03*
D15*
X182609450Y-138345350D03*
D14*
X187516353Y-139660151D03*
D16*
X179586673Y-134905798D03*
D31*
X180408110Y-134370325D03*
D32*
X186283048Y-134370893D03*
D16*
X186377702Y-134095847D03*
%TD*%
D10*
%TO.C,D11*%
X180949300Y-103336050D03*
D11*
X180949300Y-95716050D03*
%TD*%
D10*
%TO.C,D8*%
X123800050Y-110861050D03*
D11*
X123800050Y-103241050D03*
%TD*%
D10*
%TO.C,D12*%
X200000100Y-103717350D03*
D11*
X200000100Y-96097350D03*
%TD*%
D21*
%TO.C,H2*%
X181074950Y-89201700D03*
%TD*%
D14*
%TO.C,SW9*%
X128370000Y-97536050D03*
D15*
X133450000Y-97536050D03*
D14*
X138530000Y-97536050D03*
D16*
X129640000Y-94996050D03*
D17*
X130294856Y-94266220D03*
D18*
X135969758Y-92746223D03*
D16*
X135990000Y-92456050D03*
%TD*%
D21*
%TO.C,H4*%
X127941750Y-132511400D03*
%TD*%
D14*
%TO.C,SW14*%
X109320050Y-126111150D03*
D15*
X114400050Y-126111150D03*
D14*
X119480050Y-126111150D03*
D16*
X110590050Y-123571150D03*
D17*
X111244906Y-122841320D03*
D18*
X116919808Y-121321323D03*
D16*
X116940050Y-121031150D03*
%TD*%
D14*
%TO.C,SW16*%
X147420000Y-111823550D03*
D15*
X152500000Y-111823550D03*
D14*
X157580000Y-111823550D03*
D16*
X148690000Y-109283550D03*
D17*
X149344856Y-108553720D03*
D18*
X155019758Y-107033723D03*
D16*
X155040000Y-106743550D03*
%TD*%
D10*
%TO.C,D20*%
X152925000Y-139436150D03*
D11*
X152925000Y-131816150D03*
%TD*%
D14*
%TO.C,SW12*%
X185520100Y-99917350D03*
D15*
X190600100Y-99917350D03*
D14*
X195680100Y-99917350D03*
D16*
X186790100Y-97377350D03*
D17*
X187444956Y-96647520D03*
D18*
X193119858Y-95127523D03*
D16*
X193140100Y-94837350D03*
%TD*%
D14*
%TO.C,SW2*%
X109320050Y-88011050D03*
D15*
X114400050Y-88011050D03*
D14*
X119480050Y-88011050D03*
D16*
X110590050Y-85471050D03*
D17*
X111244906Y-84741220D03*
D18*
X116919808Y-83221223D03*
D16*
X116940050Y-82931050D03*
%TD*%
D14*
%TO.C,SW1*%
X90270055Y-88011050D03*
D15*
X95350055Y-88011050D03*
D14*
X100430055Y-88011050D03*
D16*
X91540055Y-85471050D03*
D17*
X92194911Y-84741220D03*
D18*
X97869813Y-83221223D03*
D16*
X97890055Y-82931050D03*
%TD*%
D14*
%TO.C,SW7*%
X90270055Y-107061050D03*
D15*
X95350055Y-107061050D03*
D14*
X100430055Y-107061050D03*
D16*
X91540055Y-104521050D03*
D17*
X92194911Y-103791220D03*
D18*
X97869813Y-102271223D03*
D16*
X97890055Y-101981050D03*
%TD*%
D14*
%TO.C,SW11*%
X166469300Y-97536050D03*
D15*
X171549300Y-97536050D03*
D14*
X176629300Y-97536050D03*
D16*
X167739300Y-94996050D03*
D17*
X168394156Y-94266220D03*
D18*
X174069058Y-92746223D03*
D16*
X174089300Y-92456050D03*
%TD*%
D21*
%TO.C,H3*%
X104875050Y-116586100D03*
%TD*%
D14*
%TO.C,SW8*%
X109320050Y-107061050D03*
D15*
X114400050Y-107061050D03*
D14*
X119480050Y-107061050D03*
D16*
X110590050Y-104521050D03*
D17*
X111244906Y-103791220D03*
D18*
X116919808Y-102271223D03*
D16*
X116940050Y-101981050D03*
%TD*%
D14*
%TO.C,SW4*%
X147420000Y-73723550D03*
D15*
X152500000Y-73723550D03*
D14*
X157580000Y-73723550D03*
D16*
X148690000Y-71183550D03*
D17*
X149344856Y-70453720D03*
D18*
X155019758Y-68933723D03*
D16*
X155040000Y-68643550D03*
%TD*%
D14*
%TO.C,SW10*%
X147420000Y-92773550D03*
D15*
X152500000Y-92773550D03*
D14*
X157580000Y-92773550D03*
D16*
X148690000Y-90233550D03*
D17*
X149344856Y-89503720D03*
D18*
X155019758Y-87983723D03*
D16*
X155040000Y-87693550D03*
%TD*%
D33*
%TO.C,U1*%
X203010000Y-76430000D03*
X203010000Y-78970000D03*
D34*
X203010000Y-81510000D03*
X203010000Y-84050000D03*
D33*
X203010000Y-86590000D03*
X203010000Y-89130000D03*
X203010000Y-91670000D03*
X203010000Y-94210000D03*
X203010000Y-96750000D03*
X203010000Y-99290000D03*
X203010000Y-101830000D03*
X203010000Y-104370000D03*
D35*
X218250000Y-75160000D03*
D34*
X218250000Y-78970000D03*
D33*
X218250000Y-81510000D03*
X218250000Y-84050000D03*
X218250000Y-86590000D03*
X218250000Y-89130000D03*
X218250000Y-91670000D03*
X218250000Y-94210000D03*
X218250000Y-96750000D03*
X218250000Y-99290000D03*
X218250000Y-101830000D03*
X218250000Y-104370000D03*
X205550000Y-99290000D03*
X208090000Y-99290000D03*
X210630000Y-99290000D03*
D34*
X203010000Y-73890000D03*
D33*
X218250000Y-73890000D03*
%TD*%
D10*
%TO.C,D13*%
X104750055Y-129911150D03*
D11*
X104750055Y-122291150D03*
%TD*%
D10*
%TO.C,D14*%
X123800050Y-127911150D03*
D11*
X123800050Y-120291150D03*
%TD*%
D10*
%TO.C,D9*%
X142850000Y-101336050D03*
D11*
X142850000Y-93716050D03*
%TD*%
D14*
%TO.C,SW17*%
X166469300Y-116586050D03*
D15*
X171549300Y-116586050D03*
D14*
X176629300Y-116586050D03*
D16*
X167739300Y-114046050D03*
D17*
X168394156Y-113316220D03*
D18*
X174069058Y-111796223D03*
D16*
X174089300Y-111506050D03*
%TD*%
D10*
%TO.C,D4*%
X161900000Y-78523550D03*
D11*
X161900000Y-70903550D03*
%TD*%
D36*
%TO.C,SW25*%
X222250000Y-110750000D03*
X222250000Y-107750000D03*
D37*
X220250000Y-107000000D03*
X220250000Y-110000000D03*
X220250000Y-111500000D03*
D38*
X221100000Y-112950000D03*
X223400000Y-112950000D03*
X221100000Y-105550000D03*
X223400000Y-105550000D03*
%TD*%
D39*
%TO.C,SW24*%
X218700000Y-121750000D03*
X218700000Y-114750000D03*
D33*
X221200000Y-115750000D03*
X221200000Y-120750000D03*
%TD*%
M02*
